<mxfile host="Electron" modified="2024-07-31T19:24:18.629Z" agent="Mozilla/5.0 (Windows NT 10.0; Win64; x64) AppleWebKit/537.36 (KHTML, like Gecko) draw.io/24.6.4 Chrome/124.0.6367.207 Electron/30.0.6 Safari/537.36" etag="CIP816ymuXQ9HFwh-EhV" version="24.6.4" type="device">
  <diagram name="Page-1" id="2ca16b54-16f6-2749-3443-fa8db7711227">
    <mxGraphModel dx="1851" dy="2528" grid="1" gridSize="10" guides="1" tooltips="1" connect="1" arrows="1" fold="1" page="1" pageScale="1" pageWidth="1100" pageHeight="850" background="none" math="0" shadow="0">
      <root>
        <mxCell id="0" />
        <mxCell id="1" parent="0" />
        <mxCell id="2ed32ef02a7f4228-1" value="&lt;div style=&quot;box-sizing:border-box;width:100%;background:#e4e4e4;padding:2px;&quot;&gt;&lt;b&gt;unidades&lt;/b&gt;&lt;/div&gt;&lt;div style=&quot;box-sizing:border-box;width:100%;background:#e4e4e4;padding:2px;&quot;&gt;&lt;br&gt;&lt;/div&gt;&lt;table style=&quot;width:100%;font-size:1em;&quot; cellpadding=&quot;2&quot; cellspacing=&quot;0&quot;&gt;&lt;tbody&gt;&lt;tr&gt;&lt;td&gt;&lt;br&gt;&lt;/td&gt;&lt;td&gt;CNES&lt;/td&gt;&lt;/tr&gt;&lt;tr&gt;&lt;td&gt;&lt;br&gt;&lt;/td&gt;&lt;td&gt;nome&lt;/td&gt;&lt;/tr&gt;&lt;tr&gt;&lt;td&gt;&lt;/td&gt;&lt;td&gt;distrito&lt;br&gt;unidade&lt;br&gt;cod_unidade&lt;br&gt;x_long&lt;br&gt;y_lat&lt;br&gt;&lt;br&gt;&lt;/td&gt;&lt;/tr&gt;&lt;/tbody&gt;&lt;/table&gt;" style="verticalAlign=top;align=left;overflow=fill;html=1;rounded=0;shadow=0;comic=0;labelBackgroundColor=none;strokeWidth=1;fontFamily=Verdana;fontSize=12" parent="1" vertex="1">
          <mxGeometry x="-730" y="-1330" width="180" height="170" as="geometry" />
        </mxCell>
        <mxCell id="j2Awrkc1tA4dV9yE8bP1-2" value="&lt;div style=&quot;box-sizing:border-box;width:100%;background:#e4e4e4;padding:2px;&quot;&gt;&lt;b&gt;USF&lt;/b&gt;&lt;/div&gt;&lt;div style=&quot;box-sizing:border-box;width:100%;background:#e4e4e4;padding:2px;&quot;&gt;&lt;br&gt;&lt;/div&gt;&lt;table style=&quot;width:100%;font-size:1em;&quot; cellpadding=&quot;2&quot; cellspacing=&quot;0&quot;&gt;&lt;tbody&gt;&lt;tr&gt;&lt;td&gt;&lt;br&gt;&lt;/td&gt;&lt;td&gt;nome_servidor&lt;/td&gt;&lt;/tr&gt;&lt;tr&gt;&lt;td&gt;&lt;br&gt;&lt;/td&gt;&lt;td&gt;situacao_funcional&lt;br&gt;perfil_cargo&lt;br&gt;perfil_und_lotacao&lt;br&gt;und_lotacao&lt;br&gt;distrito&lt;br&gt;equipe&lt;br&gt;cod_und_lotacao&lt;br&gt;cnes_und_lotacao&lt;br&gt;setor&lt;br&gt;turno_trabalho&lt;br&gt;&lt;br&gt;&lt;br&gt;&lt;/td&gt;&lt;/tr&gt;&lt;tr&gt;&lt;td&gt;&lt;/td&gt;&lt;td&gt;&lt;br&gt;&lt;br&gt;&lt;/td&gt;&lt;/tr&gt;&lt;/tbody&gt;&lt;/table&gt;" style="verticalAlign=top;align=left;overflow=fill;html=1;rounded=0;shadow=0;comic=0;labelBackgroundColor=none;strokeWidth=1;fontFamily=Verdana;fontSize=12" parent="1" vertex="1">
          <mxGeometry x="-530" y="-1610" width="180" height="230" as="geometry" />
        </mxCell>
        <mxCell id="ChXvx0Uz5xIYDGQLhh-7-1" value="&lt;div style=&quot;box-sizing:border-box;width:100%;background:#e4e4e4;padding:2px;&quot;&gt;&lt;b&gt;USF+&lt;/b&gt;&lt;/div&gt;&lt;div style=&quot;box-sizing:border-box;width:100%;background:#e4e4e4;padding:2px;&quot;&gt;&lt;br&gt;&lt;/div&gt;&lt;table style=&quot;width:100%;font-size:1em;&quot; cellpadding=&quot;2&quot; cellspacing=&quot;0&quot;&gt;&lt;tbody&gt;&lt;tr&gt;&lt;td&gt;&lt;br&gt;&lt;/td&gt;&lt;td&gt;CNES&lt;br&gt;cnes_padrao&lt;br&gt;nome&lt;br&gt;perfil&lt;br&gt;distrito&lt;br&gt;complexidade&lt;br&gt;n_esf&lt;br&gt;turno_esf&lt;br&gt;horario_esf&lt;br&gt;qtd_medico_esf&lt;br&gt;qtd_enfermeiro_esf&lt;br&gt;qtd_tecnico_esf&lt;br&gt;acs&lt;br&gt;n_esb&lt;br&gt;turno_esb&lt;br&gt;horario_esb&lt;br&gt;cir_dentista (0 ou 1)&lt;br&gt;asb (0 ou 1)&lt;br&gt;recepcionista (0 ou 1)&lt;br&gt;turno_recepcionista&lt;br&gt;horario_recepcionista&lt;br&gt;regulacao (0 ou 1)&lt;br&gt;turno_prof_regulacao&lt;br&gt;horario_prof_regulacao&lt;br&gt;farmacia (0 ou 1)&lt;br&gt;turno_prof_farmacia&lt;br&gt;horario_prof_farmacia&lt;br&gt;&lt;br&gt;&lt;br&gt;&lt;br&gt;&lt;br&gt;&lt;br&gt;&lt;br&gt;&lt;/td&gt;&lt;/tr&gt;&lt;tr&gt;&lt;td&gt;&lt;/td&gt;&lt;td&gt;&lt;br&gt;&lt;br&gt;&lt;br&gt;&lt;/td&gt;&lt;/tr&gt;&lt;tr&gt;&lt;td&gt;&lt;/td&gt;&lt;td&gt;&lt;br&gt;&lt;br&gt;&lt;/td&gt;&lt;/tr&gt;&lt;/tbody&gt;&lt;/table&gt;" style="verticalAlign=top;align=left;overflow=fill;html=1;rounded=0;shadow=0;comic=0;labelBackgroundColor=none;strokeWidth=1;fontFamily=Verdana;fontSize=12" parent="1" vertex="1">
          <mxGeometry x="-1020" y="-1610" width="260" height="450" as="geometry" />
        </mxCell>
        <mxCell id="ChXvx0Uz5xIYDGQLhh-7-2" value="&lt;div style=&quot;box-sizing:border-box;width:100%;background:#e4e4e4;padding:2px;&quot;&gt;&lt;b&gt;USF GERAL 2&lt;/b&gt;&lt;/div&gt;&lt;div style=&quot;box-sizing:border-box;width:100%;background:#e4e4e4;padding:2px;&quot;&gt;&lt;br&gt;&lt;/div&gt;&lt;table style=&quot;width:100%;font-size:1em;&quot; cellpadding=&quot;2&quot; cellspacing=&quot;0&quot;&gt;&lt;tbody&gt;&lt;tr&gt;&lt;td&gt;&lt;br&gt;&lt;/td&gt;&lt;td&gt;CNES&lt;br&gt;cnes_padrao&lt;br&gt;nome&lt;br&gt;perfil&lt;br&gt;distrito&lt;br&gt;complexidade&lt;br&gt;n_esf&lt;br&gt;turno&lt;br&gt;horario&lt;br&gt;qtd_recepcionista&lt;br&gt;farmacia (0 ou 1)&lt;br&gt;regulacao(0 ou 1)&lt;br&gt;&lt;br&gt;&lt;br&gt;&lt;br&gt;&lt;br&gt;&lt;br&gt;&lt;br&gt;&lt;br&gt;&lt;br&gt;&lt;/td&gt;&lt;/tr&gt;&lt;tr&gt;&lt;td&gt;&lt;/td&gt;&lt;td&gt;&lt;br&gt;&lt;br&gt;&lt;br&gt;&lt;/td&gt;&lt;/tr&gt;&lt;tr&gt;&lt;td&gt;&lt;/td&gt;&lt;td&gt;&lt;br&gt;&lt;br&gt;&lt;/td&gt;&lt;/tr&gt;&lt;/tbody&gt;&lt;/table&gt;" style="verticalAlign=top;align=left;overflow=fill;html=1;rounded=0;shadow=0;comic=0;labelBackgroundColor=none;strokeWidth=1;fontFamily=Verdana;fontSize=12" parent="1" vertex="1">
          <mxGeometry x="-730" y="-1610" width="180" height="250" as="geometry" />
        </mxCell>
        <mxCell id="ChXvx0Uz5xIYDGQLhh-7-3" value="Tabelas usadas" style="text;strokeColor=none;fillColor=none;html=1;fontSize=24;fontStyle=1;verticalAlign=middle;align=center;" parent="1" vertex="1">
          <mxGeometry x="-780" y="-1680" width="100" height="40" as="geometry" />
        </mxCell>
        <mxCell id="ChXvx0Uz5xIYDGQLhh-7-4" value="1 Â° forma normal (1NF)" style="text;strokeColor=none;fillColor=none;html=1;fontSize=24;fontStyle=1;verticalAlign=middle;align=center;" parent="1" vertex="1">
          <mxGeometry x="25" y="-1670" width="160" height="40" as="geometry" />
        </mxCell>
        <mxCell id="ChXvx0Uz5xIYDGQLhh-7-11" value="" style="endArrow=none;html=1;rounded=0;" parent="1" edge="1">
          <mxGeometry width="50" height="50" relative="1" as="geometry">
            <mxPoint x="-1090" y="-1130" as="sourcePoint" />
            <mxPoint x="-1090" y="-1680" as="targetPoint" />
          </mxGeometry>
        </mxCell>
        <mxCell id="ChXvx0Uz5xIYDGQLhh-7-12" value="" style="endArrow=none;html=1;rounded=0;" parent="1" edge="1">
          <mxGeometry width="50" height="50" relative="1" as="geometry">
            <mxPoint x="-140" y="-1130" as="sourcePoint" />
            <mxPoint x="-140" y="-1680" as="targetPoint" />
          </mxGeometry>
        </mxCell>
        <mxCell id="ChXvx0Uz5xIYDGQLhh-7-13" value="" style="endArrow=none;html=1;rounded=0;" parent="1" edge="1">
          <mxGeometry width="50" height="50" relative="1" as="geometry">
            <mxPoint x="-140" y="-1130" as="sourcePoint" />
            <mxPoint x="-1090" y="-1130" as="targetPoint" />
          </mxGeometry>
        </mxCell>
        <mxCell id="ChXvx0Uz5xIYDGQLhh-7-14" value="" style="endArrow=none;html=1;rounded=0;" parent="1" edge="1">
          <mxGeometry width="50" height="50" relative="1" as="geometry">
            <mxPoint x="-140" y="-1680" as="sourcePoint" />
            <mxPoint x="-1090" y="-1680" as="targetPoint" />
          </mxGeometry>
        </mxCell>
        <mxCell id="ChXvx0Uz5xIYDGQLhh-7-15" value="" style="endArrow=none;html=1;rounded=0;" parent="1" edge="1">
          <mxGeometry width="50" height="50" relative="1" as="geometry">
            <mxPoint x="-140" y="-1640" as="sourcePoint" />
            <mxPoint x="-1090" y="-1640" as="targetPoint" />
          </mxGeometry>
        </mxCell>
        <mxCell id="ChXvx0Uz5xIYDGQLhh-7-18" value="&lt;div style=&quot;box-sizing:border-box;width:100%;background:#e4e4e4;padding:2px;&quot;&gt;&lt;b&gt;unidades&lt;/b&gt;&lt;/div&gt;&lt;div style=&quot;box-sizing:border-box;width:100%;background:#e4e4e4;padding:2px;&quot;&gt;&lt;br&gt;&lt;/div&gt;&lt;table style=&quot;width:100%;font-size:1em;&quot; cellpadding=&quot;2&quot; cellspacing=&quot;0&quot;&gt;&lt;tbody&gt;&lt;tr&gt;&lt;td&gt;&lt;span style=&quot;color: rgba(0, 0, 0, 0); font-family: monospace; font-size: 0px;&quot;&gt;%3CmxGraphModel%3E%3Croot%3E%3CmxCell%20id%3D%220%22%2F%3E%3CmxCell%20id%3D%221%22%20parent%3D%220%22%2F%3E%3CmxCell%20id%3D%222%22%20value%3D%22%26lt%3Bdiv%20style%3D%26quot%3Bbox-sizing%3Aborder-box%3Bwidth%3A100%25%3Bbackground%3A%23e4e4e4%3Bpadding%3A2px%3B%26quot%3B%26gt%3BUSF%2B%26lt%3B%2Fdiv%26gt%3B%26lt%3Bdiv%20style%3D%26quot%3Bbox-sizing%3Aborder-box%3Bwidth%3A100%25%3Bbackground%3A%23e4e4e4%3Bpadding%3A2px%3B%26quot%3B%26gt%3B%26lt%3Bbr%26gt%3B%26lt%3B%2Fdiv%26gt%3B%26lt%3Btable%20style%3D%26quot%3Bwidth%3A100%25%3Bfont-size%3A1em%3B%26quot%3B%20cellpadding%3D%26quot%3B2%26quot%3B%20cellspacing%3D%26quot%3B0%26quot%3B%26gt%3B%26lt%3Btbody%26gt%3B%26lt%3Btr%26gt%3B%26lt%3Btd%26gt%3B%26lt%3Bbr%26gt%3B%26lt%3B%2Ftd%26gt%3B%26lt%3Btd%26gt%3BCNES%26lt%3Bbr%26gt%3Bcnes_padrao%26lt%3Bbr%26gt%3Bnome%26lt%3Bbr%26gt%3Bperfil%26lt%3Bbr%26gt%3Bdistrito%26lt%3Bbr%26gt%3Bcomplexidade%26lt%3Bbr%26gt%3Bn_esf%26lt%3Bbr%26gt%3Bturno_esf%26lt%3Bbr%26gt%3Bhorario_esf%26lt%3Bbr%26gt%3Bqtd_medico_esf%26lt%3Bbr%26gt%3Bqtd_enfermeiro_esf%26lt%3Bbr%26gt%3Bqtd_tecnico_esf%26lt%3Bbr%26gt%3Bacs%26lt%3Bbr%26gt%3Bn_esb%26lt%3Bbr%26gt%3Bturno_esb%26lt%3Bbr%26gt%3Bhorario_esb%26lt%3Bbr%26gt%3Bcir_dentista%20(0%20ou%201)%26lt%3Bbr%26gt%3Basb%20(0%20ou%201)%26lt%3Bbr%26gt%3Brecepcionista%20(0%20ou%201)%26lt%3Bbr%26gt%3Bturno_recepcionista%26lt%3Bbr%26gt%3Bhorario_recepcionista%26lt%3Bbr%26gt%3Bregulacao%20(0%20ou%201)%26lt%3Bbr%26gt%3Bturno_prof_regulacao%26lt%3Bbr%26gt%3Bhorario_prof_regulacao%26lt%3Bbr%26gt%3Bfarmacia%20(0%20ou%201)%26lt%3Bbr%26gt%3Bturno_prof_farmacia%26lt%3Bbr%26gt%3Bhorario_prof_farmacia%26lt%3Bbr%26gt%3B%26lt%3Bbr%26gt%3B%26lt%3Bbr%26gt%3B%26lt%3Bbr%26gt%3B%26lt%3Bbr%26gt%3B%26lt%3Bbr%26gt%3B%26lt%3Bbr%26gt%3B%26lt%3B%2Ftd%26gt%3B%26lt%3B%2Ftr%26gt%3B%26lt%3Btr%26gt%3B%26lt%3Btd%26gt%3B%26lt%3B%2Ftd%26gt%3B%26lt%3Btd%26gt%3B%26lt%3Bbr%26gt%3B%26lt%3Bbr%26gt%3B%26lt%3Bbr%26gt%3B%26lt%3B%2Ftd%26gt%3B%26lt%3B%2Ftr%26gt%3B%26lt%3Btr%26gt%3B%26lt%3Btd%26gt%3B%26lt%3B%2Ftd%26gt%3B%26lt%3Btd%26gt%3B%26lt%3Bbr%26gt%3B%26lt%3Bbr%26gt%3B%26lt%3B%2Ftd%26gt%3B%26lt%3B%2Ftr%26gt%3B%26lt%3B%2Ftbody%26gt%3B%26lt%3B%2Ftable%26gt%3B%22%20style%3D%22verticalAlign%3Dtop%3Balign%3Dleft%3Boverflow%3Dfill%3Bhtml%3D1%3Brounded%3D0%3Bshadow%3D0%3Bcomic%3D0%3BlabelBackgroundColor%3Dnone%3BstrokeWidth%3D1%3BfontFamily%3DVerdana%3BfontSize%3D12%22%20vertex%3D%221%22%20parent%3D%221%22%3E%3CmxGeometry%20x%3D%22-350%22%20y%3D%2290%22%20width%3D%22260%22%20height%3D%22450%22%20as%3D%22geometry%22%2F%3E%3C%2FmxCell%3E%3C%2Froot%3E%3C%2FmxGraphModel%3E&lt;/span&gt;&lt;span id=&quot;docs-internal-guid-9bf1a6af-7fff-64a5-996d-017bda13f4cf&quot;&gt;cnes_padrao &lt;b&gt;VARCHAR(20)&lt;/b&gt;&lt;br&gt;nome &lt;b&gt;VARCHAR(255)&lt;/b&gt;&lt;br&gt;distrito &lt;b&gt;VARCHAR(100)&lt;/b&gt;&lt;br&gt;unidade &lt;b&gt;VARCHAR(100)&lt;/b&gt;&lt;br&gt;cod_unidade &lt;b&gt;VARCHAR(50)&lt;/b&gt;&lt;br&gt;x_long &lt;b&gt;DECIMAL(10, 6)&lt;/b&gt;&lt;br&gt;y_lat &lt;b&gt;DECIMAL(10, 6)&lt;/b&gt;&lt;br&gt;tipo_unidade &lt;b&gt;VARCHAR(10)&lt;/b&gt;, -&lt;i&gt;- &#39;USF&#39; ou &#39;USF+&lt;/i&gt;&#39; &lt;br&gt;horario_inicio &lt;b&gt;TIME&lt;/b&gt;&lt;br&gt;horario_fim &lt;b&gt;TIME&lt;/b&gt;&lt;br&gt;qtd_recepcionista&lt;b&gt; INT&lt;/b&gt;&lt;br&gt;qtd_farmacia &lt;b&gt;INT&lt;/b&gt;&lt;br&gt;regulacao &lt;b&gt;BOOLEAN&lt;/b&gt;&lt;br&gt;acs &lt;b&gt;BOOLEAN&lt;/b&gt;&lt;br&gt;n_esb &lt;b&gt;INT&lt;/b&gt;&lt;br&gt;cir_dentista &lt;b&gt;BOOLEAN&lt;/b&gt;&lt;br&gt;asb &lt;b&gt;BOOLEAN&lt;/b&gt;&lt;br&gt;recepcionista &lt;b&gt;BOOLEAN&lt;/b&gt;&lt;br&gt;farmacia &lt;b&gt;BOOLEAN&lt;/b&gt;&lt;/span&gt;&lt;/td&gt;&lt;td&gt;&lt;br&gt;&lt;br&gt;&lt;br&gt;&lt;br&gt;&lt;br&gt;&lt;br&gt;&lt;br&gt;&lt;/td&gt;&lt;/tr&gt;&lt;tr&gt;&lt;td&gt;&lt;/td&gt;&lt;td&gt;&lt;br&gt;&lt;br&gt;&lt;br&gt;&lt;/td&gt;&lt;/tr&gt;&lt;tr&gt;&lt;td&gt;&lt;/td&gt;&lt;td&gt;&lt;br&gt;&lt;br&gt;&lt;/td&gt;&lt;/tr&gt;&lt;/tbody&gt;&lt;/table&gt;" style="verticalAlign=top;align=left;overflow=fill;html=1;rounded=0;shadow=0;comic=0;labelBackgroundColor=none;strokeWidth=1;fontFamily=Verdana;fontSize=12" parent="1" vertex="1">
          <mxGeometry x="-50" y="-1560" width="310" height="360" as="geometry" />
        </mxCell>
        <mxCell id="ChXvx0Uz5xIYDGQLhh-7-19" value="2 Â° forma normal (2NF)" style="text;strokeColor=none;fillColor=none;html=1;fontSize=24;fontStyle=1;verticalAlign=middle;align=center;" parent="1" vertex="1">
          <mxGeometry x="-530" y="-1070" width="160" height="40" as="geometry" />
        </mxCell>
        <mxCell id="ChXvx0Uz5xIYDGQLhh-7-20" value="&lt;div style=&quot;box-sizing:border-box;width:100%;background:#e4e4e4;padding:2px;&quot;&gt;&lt;b&gt;unidades&lt;/b&gt;&lt;/div&gt;&lt;div style=&quot;box-sizing:border-box;width:100%;background:#e4e4e4;padding:2px;&quot;&gt;&lt;br&gt;&lt;/div&gt;&lt;table style=&quot;width:100%;font-size:1em;&quot; cellpadding=&quot;2&quot; cellspacing=&quot;0&quot;&gt;&lt;tbody&gt;&lt;tr&gt;&lt;td&gt;&lt;span style=&quot;color: rgba(0, 0, 0, 0); font-family: monospace; font-size: 0px;&quot;&gt;%3CmxGraphModel%3E%3Croot%3E%3CmxCell%20id%3D%220%22%2F%3E%3CmxCell%20id%3D%221%22%20parent%3D%220%22%2F%3E%3CmxCell%20id%3D%222%22%20value%3D%22%26lt%3Bdiv%20style%3D%26quot%3Bbox-sizing%3Aborder-box%3Bwidth%3A100%25%3Bbackground%3A%23e4e4e4%3Bpadding%3A2px%3B%26quot%3B%26gt%3BUSF%2B%26lt%3B%2Fdiv%26gt%3B%26lt%3Bdiv%20style%3D%26quot%3Bbox-sizing%3Aborder-box%3Bwidth%3A100%25%3Bbackground%3A%23e4e4e4%3Bpadding%3A2px%3B%26quot%3B%26gt%3B%26lt%3Bbr%26gt%3B%26lt%3B%2Fdiv%26gt%3B%26lt%3Btable%20style%3D%26quot%3Bwidth%3A100%25%3Bfont-size%3A1em%3B%26quot%3B%20cellpadding%3D%26quot%3B2%26quot%3B%20cellspacing%3D%26quot%3B0%26quot%3B%26gt%3B%26lt%3Btbody%26gt%3B%26lt%3Btr%26gt%3B%26lt%3Btd%26gt%3B%26lt%3Bbr%26gt%3B%26lt%3B%2Ftd%26gt%3B%26lt%3Btd%26gt%3BCNES%26lt%3Bbr%26gt%3Bcnes_padrao%26lt%3Bbr%26gt%3Bnome%26lt%3Bbr%26gt%3Bperfil%26lt%3Bbr%26gt%3Bdistrito%26lt%3Bbr%26gt%3Bcomplexidade%26lt%3Bbr%26gt%3Bn_esf%26lt%3Bbr%26gt%3Bturno_esf%26lt%3Bbr%26gt%3Bhorario_esf%26lt%3Bbr%26gt%3Bqtd_medico_esf%26lt%3Bbr%26gt%3Bqtd_enfermeiro_esf%26lt%3Bbr%26gt%3Bqtd_tecnico_esf%26lt%3Bbr%26gt%3Bacs%26lt%3Bbr%26gt%3Bn_esb%26lt%3Bbr%26gt%3Bturno_esb%26lt%3Bbr%26gt%3Bhorario_esb%26lt%3Bbr%26gt%3Bcir_dentista%20(0%20ou%201)%26lt%3Bbr%26gt%3Basb%20(0%20ou%201)%26lt%3Bbr%26gt%3Brecepcionista%20(0%20ou%201)%26lt%3Bbr%26gt%3Bturno_recepcionista%26lt%3Bbr%26gt%3Bhorario_recepcionista%26lt%3Bbr%26gt%3Bregulacao%20(0%20ou%201)%26lt%3Bbr%26gt%3Bturno_prof_regulacao%26lt%3Bbr%26gt%3Bhorario_prof_regulacao%26lt%3Bbr%26gt%3Bfarmacia%20(0%20ou%201)%26lt%3Bbr%26gt%3Bturno_prof_farmacia%26lt%3Bbr%26gt%3Bhorario_prof_farmacia%26lt%3Bbr%26gt%3B%26lt%3Bbr%26gt%3B%26lt%3Bbr%26gt%3B%26lt%3Bbr%26gt%3B%26lt%3Bbr%26gt%3B%26lt%3Bbr%26gt%3B%26lt%3Bbr%26gt%3B%26lt%3B%2Ftd%26gt%3B%26lt%3B%2Ftr%26gt%3B%26lt%3Btr%26gt%3B%26lt%3Btd%26gt%3B%26lt%3B%2Ftd%26gt%3B%26lt%3Btd%26gt%3B%26lt%3Bbr%26gt%3B%26lt%3Bbr%26gt%3B%26lt%3Bbr%26gt%3B%26lt%3B%2Ftd%26gt%3B%26lt%3B%2Ftr%26gt%3B%26lt%3Btr%26gt%3B%26lt%3Btd%26gt%3B%26lt%3B%2Ftd%26gt%3B%26lt%3Btd%26gt%3B%26lt%3Bbr%26gt%3B%26lt%3Bbr%26gt%3B%26lt%3B%2Ftd%26gt%3B%26lt%3B%2Ftr%26gt%3B%26lt%3B%2Ftbody%26gt%3B%26lt%3B%2Ftable%26gt%3B%22%20style%3D%22verticalAlign%3Dtop%3Balign%3Dleft%3Boverflow%3Dfill%3Bhtml%3D1%3Brounded%3D0%3Bshadow%3D0%3Bcomic%3D0%3BlabelBackgroundColor%3Dnone%3BstrokeWidth%3D1%3BfontFamily%3DVerdana%3BfontSize%3D12%22%20vertex%3D%221%22%20parent%3D%221%22%3E%3CmxGeometry%20x%3D%22-350%22%20y%3D%2290%22%20width%3D%22260%22%20height%3D%22450%22%20as%3D%22geometry%22%2F%3E%3C%2FmxCell%3E%3C%2Froot%3E%3C%2FmxGraphModel%3EpkPKp&lt;/span&gt;&lt;span id=&quot;docs-internal-guid-9bf1a6af-7fff-64a5-996d-017bda13f4cf&quot;&gt;&lt;b&gt;PK&lt;/b&gt;&amp;nbsp; &amp;nbsp; &amp;nbsp;cnes_padrao &lt;b&gt;VARCHAR(20)&amp;nbsp;&lt;/b&gt;&lt;br&gt;&lt;/span&gt;&lt;blockquote style=&quot;margin: 0 0 0 40px; border: none; padding: 0px;&quot;&gt;&lt;span&gt;nome &lt;b&gt;VARCHAR(255)&lt;br&gt;&lt;/b&gt;&lt;/span&gt;&lt;span&gt;distrito &lt;b&gt;VARCHAR(100)&lt;br&gt;&lt;/b&gt;&lt;/span&gt;&lt;span&gt;unidade &lt;b&gt;VARCHAR(100)&lt;br&gt;&lt;/b&gt;&lt;/span&gt;&lt;span&gt;cod_unidade &lt;b&gt;VARCHAR(50)&lt;br&gt;&lt;/b&gt;&lt;/span&gt;&lt;span&gt;x_long &lt;b&gt;DECIMAL(10, 6)&lt;br&gt;&lt;/b&gt;&lt;/span&gt;&lt;span&gt;y_lat &lt;b&gt;DECIMAL(10, 6)&lt;br&gt;&lt;/b&gt;&lt;/span&gt;&lt;span&gt;tipo_unidade &lt;b&gt;VARCHAR(10) &lt;br&gt;&lt;/b&gt;&lt;/span&gt;&lt;/blockquote&gt;&lt;span&gt;&lt;b&gt;FK&amp;nbsp; &amp;nbsp; &amp;nbsp;&amp;nbsp;&lt;/b&gt;fk_cnes_padrao&lt;br&gt;&lt;br&gt;&lt;/span&gt;&lt;/td&gt;&lt;td&gt;&lt;br&gt;&lt;br&gt;&lt;br&gt;&lt;br&gt;&lt;br&gt;&lt;br&gt;&lt;br&gt;&lt;/td&gt;&lt;/tr&gt;&lt;tr&gt;&lt;td&gt;&lt;/td&gt;&lt;td&gt;&lt;br&gt;&lt;br&gt;&lt;br&gt;&lt;/td&gt;&lt;/tr&gt;&lt;tr&gt;&lt;td&gt;&lt;/td&gt;&lt;td&gt;&lt;br&gt;&lt;br&gt;&lt;/td&gt;&lt;/tr&gt;&lt;/tbody&gt;&lt;/table&gt;" style="verticalAlign=top;align=left;overflow=fill;html=1;rounded=0;shadow=0;comic=0;labelBackgroundColor=none;strokeWidth=1;fontFamily=Verdana;fontSize=12" parent="1" vertex="1">
          <mxGeometry x="-840" y="-1000" width="310" height="220" as="geometry" />
        </mxCell>
        <mxCell id="ChXvx0Uz5xIYDGQLhh-7-23" value="&lt;div style=&quot;box-sizing:border-box;width:100%;background:#e4e4e4;padding:2px;&quot;&gt;&lt;b&gt;horarios&lt;/b&gt;&lt;/div&gt;&lt;div style=&quot;box-sizing:border-box;width:100%;background:#e4e4e4;padding:2px;&quot;&gt;&lt;br&gt;&lt;/div&gt;&lt;b&gt;PK&lt;/b&gt;&amp;nbsp; &amp;nbsp; &amp;nbsp;cnes_padrao VARCHAR(20)&lt;div&gt;&lt;b&gt;FK&amp;nbsp; &amp;nbsp; &amp;nbsp;&amp;nbsp;&lt;/b&gt;fk_cnes_padrao&lt;div&gt;&lt;blockquote style=&quot;margin: 0 0 0 40px; border: none; padding: 0px;&quot;&gt;&lt;div&gt;id SERIAL PRIMARY KEY&lt;/div&gt;&lt;div&gt;&lt;div&gt;tipo_horario&amp;nbsp; VARCHAR(50) -- &quot;ATENDIMENTO&quot; &quot;RECEPCAO&quot;&lt;/div&gt;&lt;/div&gt;&lt;div&gt;&lt;div&gt;horario_inicio TIME&lt;/div&gt;&lt;/div&gt;&lt;/blockquote&gt;&lt;div&gt;&lt;div&gt;&lt;span style=&quot;background-color: initial;&quot;&gt;&lt;br&gt;&lt;/span&gt;&lt;/div&gt;&lt;div&gt;&lt;br&gt;&lt;/div&gt;&lt;div&gt;&lt;br&gt;&lt;/div&gt;&lt;div&gt;&lt;br&gt;&lt;/div&gt;&lt;div&gt;&lt;br&gt;&lt;/div&gt;&lt;div&gt;&lt;br&gt;&lt;/div&gt;&lt;div&gt;&lt;br&gt;&lt;/div&gt;&lt;div&gt;&lt;br&gt;&lt;table style=&quot;width:100%;font-size:1em;&quot; cellpadding=&quot;2&quot; cellspacing=&quot;0&quot;&gt;&lt;tbody&gt;&lt;tr&gt;&lt;td&gt;&lt;span id=&quot;docs-internal-guid-9bf1a6af-7fff-64a5-996d-017bda13f4cf&quot;&gt;&lt;br&gt;&lt;br&gt;&lt;/span&gt;&lt;/td&gt;&lt;td&gt;&lt;br&gt;&lt;br&gt;&lt;br&gt;&lt;br&gt;&lt;br&gt;&lt;br&gt;&lt;br&gt;&lt;/td&gt;&lt;/tr&gt;&lt;tr&gt;&lt;td&gt;&lt;/td&gt;&lt;td&gt;&lt;br&gt;&lt;br&gt;&lt;br&gt;&lt;/td&gt;&lt;/tr&gt;&lt;tr&gt;&lt;td&gt;&lt;/td&gt;&lt;td&gt;&lt;br&gt;&lt;br&gt;&lt;/td&gt;&lt;/tr&gt;&lt;/tbody&gt;&lt;/table&gt;&lt;/div&gt;&lt;/div&gt;&lt;/div&gt;&lt;/div&gt;" style="verticalAlign=top;align=left;overflow=fill;html=1;rounded=0;shadow=0;comic=0;labelBackgroundColor=none;strokeWidth=1;fontFamily=Verdana;fontSize=12" parent="1" vertex="1">
          <mxGeometry x="-410" y="-1000" width="420" height="220" as="geometry" />
        </mxCell>
        <mxCell id="ChXvx0Uz5xIYDGQLhh-7-24" value="&lt;div style=&quot;box-sizing:border-box;width:100%;background:#e4e4e4;padding:2px;&quot;&gt;&lt;b&gt;caracteristicas_unidades&lt;/b&gt;&lt;/div&gt;&lt;div style=&quot;box-sizing:border-box;width:100%;background:#e4e4e4;padding:2px;&quot;&gt;&lt;br&gt;&lt;/div&gt;&lt;b&gt;PK&amp;nbsp; &amp;nbsp; &amp;nbsp;&amp;nbsp;&lt;/b&gt;cnes_padrao VARCHAR(20)&lt;blockquote style=&quot;margin: 0 0 0 40px; border: none; padding: 0px;&quot;&gt;&lt;div&gt;qtd_recepcionista INT&lt;/div&gt;&lt;div&gt;qtd_farmacia INT&lt;/div&gt;&lt;div&gt;regulacao BOOLEAN&lt;/div&gt;&lt;div&gt;acs BOOLEAN&lt;/div&gt;&lt;div&gt;n_esb INT&lt;/div&gt;&lt;div&gt;cir_dentista BOOLEAN&lt;/div&gt;&lt;div&gt;asb BOOLEAN&lt;/div&gt;&lt;div&gt;recepcionista BOOLEAN&lt;/div&gt;&lt;/blockquote&gt;&lt;div&gt;&lt;b&gt;FK&amp;nbsp; &amp;nbsp; &amp;nbsp;&amp;nbsp;&lt;/b&gt;fk_cnes_padrao&lt;br&gt;&lt;div&gt;&lt;span style=&quot;background-color: initial;&quot;&gt;&lt;br&gt;&lt;/span&gt;&lt;/div&gt;&lt;div&gt;&lt;br&gt;&lt;/div&gt;&lt;div&gt;&lt;br&gt;&lt;/div&gt;&lt;div&gt;&lt;br&gt;&lt;/div&gt;&lt;div&gt;&lt;br&gt;&lt;/div&gt;&lt;div&gt;&lt;br&gt;&lt;/div&gt;&lt;div&gt;&lt;br&gt;&lt;/div&gt;&lt;div&gt;&lt;br&gt;&lt;table style=&quot;width:100%;font-size:1em;&quot; cellpadding=&quot;2&quot; cellspacing=&quot;0&quot;&gt;&lt;tbody&gt;&lt;tr&gt;&lt;td&gt;&lt;span id=&quot;docs-internal-guid-9bf1a6af-7fff-64a5-996d-017bda13f4cf&quot;&gt;&lt;br&gt;&lt;br&gt;&lt;/span&gt;&lt;/td&gt;&lt;td&gt;&lt;br&gt;&lt;br&gt;&lt;br&gt;&lt;br&gt;&lt;br&gt;&lt;br&gt;&lt;br&gt;&lt;/td&gt;&lt;/tr&gt;&lt;tr&gt;&lt;td&gt;&lt;/td&gt;&lt;td&gt;&lt;br&gt;&lt;br&gt;&lt;br&gt;&lt;/td&gt;&lt;/tr&gt;&lt;tr&gt;&lt;td&gt;&lt;/td&gt;&lt;td&gt;&lt;br&gt;&lt;br&gt;&lt;/td&gt;&lt;/tr&gt;&lt;/tbody&gt;&lt;/table&gt;&lt;/div&gt;&lt;/div&gt;" style="verticalAlign=top;align=left;overflow=fill;html=1;rounded=0;shadow=0;comic=0;labelBackgroundColor=none;strokeWidth=1;fontFamily=Verdana;fontSize=12" parent="1" vertex="1">
          <mxGeometry x="-840" y="-740" width="380" height="220" as="geometry" />
        </mxCell>
        <mxCell id="ChXvx0Uz5xIYDGQLhh-7-25" value="3Â° forma normal (3NF)" style="text;strokeColor=none;fillColor=none;html=1;fontSize=24;fontStyle=1;verticalAlign=middle;align=center;" parent="1" vertex="1">
          <mxGeometry x="-522" y="-430" width="160" height="40" as="geometry" />
        </mxCell>
        <mxCell id="ChXvx0Uz5xIYDGQLhh-7-37" value="&lt;div style=&quot;box-sizing:border-box;width:100%;background:#e4e4e4;padding:2px;&quot;&gt;&lt;b&gt;unidades&lt;/b&gt;&lt;/div&gt;&lt;div style=&quot;box-sizing:border-box;width:100%;background:#e4e4e4;padding:2px;&quot;&gt;&lt;br&gt;&lt;/div&gt;&lt;table style=&quot;width:100%;font-size:1em;&quot; cellpadding=&quot;2&quot; cellspacing=&quot;0&quot;&gt;&lt;tbody&gt;&lt;tr&gt;&lt;td&gt;&lt;span style=&quot;color: rgba(0, 0, 0, 0); font-family: monospace; font-size: 0px;&quot;&gt;%3CmxGraphModel%3E%3Croot%3E%3CmxCell%20id%3D%220%22%2F%3E%3CmxCell%20id%3D%221%22%20parent%3D%220%22%2F%3E%3CmxCell%20id%3D%222%22%20value%3D%22%26lt%3Bdiv%20style%3D%26quot%3Bbox-sizing%3Aborder-box%3Bwidth%3A100%25%3Bbackground%3A%23e4e4e4%3Bpadding%3A2px%3B%26quot%3B%26gt%3BUSF%2B%26lt%3B%2Fdiv%26gt%3B%26lt%3Bdiv%20style%3D%26quot%3Bbox-sizing%3Aborder-box%3Bwidth%3A100%25%3Bbackground%3A%23e4e4e4%3Bpadding%3A2px%3B%26quot%3B%26gt%3B%26lt%3Bbr%26gt%3B%26lt%3B%2Fdiv%26gt%3B%26lt%3Btable%20style%3D%26quot%3Bwidth%3A100%25%3Bfont-size%3A1em%3B%26quot%3B%20cellpadding%3D%26quot%3B2%26quot%3B%20cellspacing%3D%26quot%3B0%26quot%3B%26gt%3B%26lt%3Btbody%26gt%3B%26lt%3Btr%26gt%3B%26lt%3Btd%26gt%3B%26lt%3Bbr%26gt%3B%26lt%3B%2Ftd%26gt%3B%26lt%3Btd%26gt%3BCNES%26lt%3Bbr%26gt%3Bcnes_padrao%26lt%3Bbr%26gt%3Bnome%26lt%3Bbr%26gt%3Bperfil%26lt%3Bbr%26gt%3Bdistrito%26lt%3Bbr%26gt%3Bcomplexidade%26lt%3Bbr%26gt%3Bn_esf%26lt%3Bbr%26gt%3Bturno_esf%26lt%3Bbr%26gt%3Bhorario_esf%26lt%3Bbr%26gt%3Bqtd_medico_esf%26lt%3Bbr%26gt%3Bqtd_enfermeiro_esf%26lt%3Bbr%26gt%3Bqtd_tecnico_esf%26lt%3Bbr%26gt%3Bacs%26lt%3Bbr%26gt%3Bn_esb%26lt%3Bbr%26gt%3Bturno_esb%26lt%3Bbr%26gt%3Bhorario_esb%26lt%3Bbr%26gt%3Bcir_dentista%20(0%20ou%201)%26lt%3Bbr%26gt%3Basb%20(0%20ou%201)%26lt%3Bbr%26gt%3Brecepcionista%20(0%20ou%201)%26lt%3Bbr%26gt%3Bturno_recepcionista%26lt%3Bbr%26gt%3Bhorario_recepcionista%26lt%3Bbr%26gt%3Bregulacao%20(0%20ou%201)%26lt%3Bbr%26gt%3Bturno_prof_regulacao%26lt%3Bbr%26gt%3Bhorario_prof_regulacao%26lt%3Bbr%26gt%3Bfarmacia%20(0%20ou%201)%26lt%3Bbr%26gt%3Bturno_prof_farmacia%26lt%3Bbr%26gt%3Bhorario_prof_farmacia%26lt%3Bbr%26gt%3B%26lt%3Bbr%26gt%3B%26lt%3Bbr%26gt%3B%26lt%3Bbr%26gt%3B%26lt%3Bbr%26gt%3B%26lt%3Bbr%26gt%3B%26lt%3Bbr%26gt%3B%26lt%3B%2Ftd%26gt%3B%26lt%3B%2Ftr%26gt%3B%26lt%3Btr%26gt%3B%26lt%3Btd%26gt%3B%26lt%3B%2Ftd%26gt%3B%26lt%3Btd%26gt%3B%26lt%3Bbr%26gt%3B%26lt%3Bbr%26gt%3B%26lt%3Bbr%26gt%3B%26lt%3B%2Ftd%26gt%3B%26lt%3B%2Ftr%26gt%3B%26lt%3Btr%26gt%3B%26lt%3Btd%26gt%3B%26lt%3B%2Ftd%26gt%3B%26lt%3Btd%26gt%3B%26lt%3Bbr%26gt%3B%26lt%3Bbr%26gt%3B%26lt%3B%2Ftd%26gt%3B%26lt%3B%2Ftr%26gt%3B%26lt%3B%2Ftbody%26gt%3B%26lt%3B%2Ftable%26gt%3B%22%20style%3D%22verticalAlign%3Dtop%3Balign%3Dleft%3Boverflow%3Dfill%3Bhtml%3D1%3Brounded%3D0%3Bshadow%3D0%3Bcomic%3D0%3BlabelBackgroundColor%3Dnone%3BstrokeWidth%3D1%3BfontFamily%3DVerdana%3BfontSize%3D12%22%20vertex%3D%221%22%20parent%3D%221%22%3E%3CmxGeometry%20x%3D%22-350%22%20y%3D%2290%22%20width%3D%22260%22%20height%3D%22450%22%20as%3D%22geometry%22%2F%3E%3C%2FmxCell%3E%3C%2Froot%3E%3C%2FmxGraphModel%3EpkPKp&lt;/span&gt;&lt;span id=&quot;docs-internal-guid-9bf1a6af-7fff-64a5-996d-017bda13f4cf&quot;&gt;&lt;b&gt;PK&lt;/b&gt;&amp;nbsp; &amp;nbsp; &amp;nbsp;cnes_padrao &lt;b&gt;VARCHAR(20)&amp;nbsp;&lt;/b&gt;&lt;br&gt;&lt;/span&gt;&lt;blockquote style=&quot;margin: 0 0 0 40px; border: none; padding: 0px;&quot;&gt;&lt;span&gt;nome &lt;b&gt;VARCHAR(255)&lt;br&gt;&lt;/b&gt;&lt;/span&gt;&lt;span&gt;distrito &lt;b&gt;VARCHAR(100)&lt;br&gt;&lt;/b&gt;&lt;/span&gt;&lt;span&gt;unidade &lt;b&gt;VARCHAR(100)&lt;br&gt;&lt;/b&gt;&lt;/span&gt;&lt;span&gt;cod_unidade &lt;b&gt;VARCHAR(50)&lt;br&gt;&lt;/b&gt;&lt;/span&gt;&lt;span&gt;x_long &lt;b&gt;DECIMAL(10, 6)&lt;br&gt;&lt;/b&gt;&lt;/span&gt;&lt;span&gt;y_lat &lt;b&gt;DECIMAL(10, 6)&lt;br&gt;&lt;/b&gt;&lt;/span&gt;&lt;span&gt;tipo_unidade &lt;b&gt;VARCHAR(10) &lt;br&gt;&lt;/b&gt;&lt;/span&gt;&lt;/blockquote&gt;&lt;span&gt;&lt;b&gt;FK&amp;nbsp; &amp;nbsp; &amp;nbsp;&amp;nbsp;&lt;/b&gt;tipoUnidade (tabela TipoUnidade)&lt;br&gt;&lt;br&gt;&lt;/span&gt;&lt;/td&gt;&lt;td&gt;&lt;br&gt;&lt;br&gt;&lt;br&gt;&lt;br&gt;&lt;br&gt;&lt;br&gt;&lt;br&gt;&lt;/td&gt;&lt;/tr&gt;&lt;tr&gt;&lt;td&gt;&lt;/td&gt;&lt;td&gt;&lt;br&gt;&lt;br&gt;&lt;br&gt;&lt;/td&gt;&lt;/tr&gt;&lt;tr&gt;&lt;td&gt;&lt;/td&gt;&lt;td&gt;&lt;br&gt;&lt;br&gt;&lt;/td&gt;&lt;/tr&gt;&lt;/tbody&gt;&lt;/table&gt;" style="verticalAlign=top;align=left;overflow=fill;html=1;rounded=0;shadow=0;comic=0;labelBackgroundColor=none;strokeWidth=1;fontFamily=Verdana;fontSize=12" parent="1" vertex="1">
          <mxGeometry x="-840" y="-220" width="310" height="220" as="geometry" />
        </mxCell>
        <mxCell id="ChXvx0Uz5xIYDGQLhh-7-38" value="&lt;div style=&quot;box-sizing:border-box;width:100%;background:#e4e4e4;padding:2px;&quot;&gt;&lt;b&gt;horarios&lt;/b&gt;&lt;/div&gt;&lt;div style=&quot;box-sizing:border-box;width:100%;background:#e4e4e4;padding:2px;&quot;&gt;&lt;br&gt;&lt;/div&gt;&lt;b&gt;PK&lt;/b&gt;&amp;nbsp; &amp;nbsp; &amp;nbsp;cnes_padrao VARCHAR(20)&lt;div&gt;&lt;b&gt;FK&amp;nbsp; &amp;nbsp; &amp;nbsp;&amp;nbsp;&lt;/b&gt;fk_cnes_padrao&lt;div&gt;&lt;blockquote style=&quot;margin: 0 0 0 40px; border: none; padding: 0px;&quot;&gt;&lt;div&gt;id SERIAL PRIMARY KEY&lt;/div&gt;&lt;div&gt;&lt;div&gt;tipo_horario&amp;nbsp; VARCHAR(50) -- &quot;ATENDIMENTO&quot; &quot;RECEPCAO&quot;&lt;/div&gt;&lt;/div&gt;&lt;div&gt;&lt;div&gt;horario_inicio TIME&lt;/div&gt;&lt;/div&gt;&lt;/blockquote&gt;&lt;div&gt;&lt;div&gt;&lt;span style=&quot;background-color: initial;&quot;&gt;&lt;br&gt;&lt;/span&gt;&lt;/div&gt;&lt;div&gt;&lt;br&gt;&lt;/div&gt;&lt;div&gt;&lt;br&gt;&lt;/div&gt;&lt;div&gt;&lt;br&gt;&lt;/div&gt;&lt;div&gt;&lt;br&gt;&lt;/div&gt;&lt;div&gt;&lt;br&gt;&lt;/div&gt;&lt;div&gt;&lt;br&gt;&lt;/div&gt;&lt;div&gt;&lt;br&gt;&lt;table style=&quot;width:100%;font-size:1em;&quot; cellpadding=&quot;2&quot; cellspacing=&quot;0&quot;&gt;&lt;tbody&gt;&lt;tr&gt;&lt;td&gt;&lt;span id=&quot;docs-internal-guid-9bf1a6af-7fff-64a5-996d-017bda13f4cf&quot;&gt;&lt;br&gt;&lt;br&gt;&lt;/span&gt;&lt;/td&gt;&lt;td&gt;&lt;br&gt;&lt;br&gt;&lt;br&gt;&lt;br&gt;&lt;br&gt;&lt;br&gt;&lt;br&gt;&lt;/td&gt;&lt;/tr&gt;&lt;tr&gt;&lt;td&gt;&lt;/td&gt;&lt;td&gt;&lt;br&gt;&lt;br&gt;&lt;br&gt;&lt;/td&gt;&lt;/tr&gt;&lt;tr&gt;&lt;td&gt;&lt;/td&gt;&lt;td&gt;&lt;br&gt;&lt;br&gt;&lt;/td&gt;&lt;/tr&gt;&lt;/tbody&gt;&lt;/table&gt;&lt;/div&gt;&lt;/div&gt;&lt;/div&gt;&lt;/div&gt;" style="verticalAlign=top;align=left;overflow=fill;html=1;rounded=0;shadow=0;comic=0;labelBackgroundColor=none;strokeWidth=1;fontFamily=Verdana;fontSize=12" parent="1" vertex="1">
          <mxGeometry x="-441" y="-120" width="420" height="220" as="geometry" />
        </mxCell>
        <mxCell id="ChXvx0Uz5xIYDGQLhh-7-39" value="&lt;div style=&quot;box-sizing:border-box;width:100%;background:#e4e4e4;padding:2px;&quot;&gt;&lt;b&gt;caracteristicas_unidades&lt;/b&gt;&lt;/div&gt;&lt;div style=&quot;box-sizing:border-box;width:100%;background:#e4e4e4;padding:2px;&quot;&gt;&lt;br&gt;&lt;/div&gt;&lt;b&gt;PK&amp;nbsp; &amp;nbsp; &amp;nbsp;&amp;nbsp;&lt;/b&gt;cnes_padrao VARCHAR(20)&lt;blockquote style=&quot;margin: 0 0 0 40px; border: none; padding: 0px;&quot;&gt;&lt;div&gt;qtd_recepcionista INT&lt;/div&gt;&lt;div&gt;qtd_farmacia INT&lt;/div&gt;&lt;div&gt;regulacao BOOLEAN&lt;/div&gt;&lt;div&gt;acs BOOLEAN&lt;/div&gt;&lt;div&gt;n_esb INT&lt;/div&gt;&lt;div&gt;cir_dentista BOOLEAN&lt;/div&gt;&lt;div&gt;asb BOOLEAN&lt;/div&gt;&lt;div&gt;recepcionista BOOLEAN&lt;/div&gt;&lt;/blockquote&gt;&lt;div&gt;&lt;b&gt;FK&amp;nbsp; &amp;nbsp; &amp;nbsp;&amp;nbsp;&lt;/b&gt;fk_cnes_padrao&lt;br&gt;&lt;div&gt;&lt;span style=&quot;background-color: initial;&quot;&gt;&lt;br&gt;&lt;/span&gt;&lt;/div&gt;&lt;div&gt;&lt;br&gt;&lt;/div&gt;&lt;div&gt;&lt;br&gt;&lt;/div&gt;&lt;div&gt;&lt;br&gt;&lt;/div&gt;&lt;div&gt;&lt;br&gt;&lt;/div&gt;&lt;div&gt;&lt;br&gt;&lt;/div&gt;&lt;div&gt;&lt;br&gt;&lt;/div&gt;&lt;div&gt;&lt;br&gt;&lt;table style=&quot;width:100%;font-size:1em;&quot; cellpadding=&quot;2&quot; cellspacing=&quot;0&quot;&gt;&lt;tbody&gt;&lt;tr&gt;&lt;td&gt;&lt;span id=&quot;docs-internal-guid-9bf1a6af-7fff-64a5-996d-017bda13f4cf&quot;&gt;&lt;br&gt;&lt;br&gt;&lt;/span&gt;&lt;/td&gt;&lt;td&gt;&lt;br&gt;&lt;br&gt;&lt;br&gt;&lt;br&gt;&lt;br&gt;&lt;br&gt;&lt;br&gt;&lt;/td&gt;&lt;/tr&gt;&lt;tr&gt;&lt;td&gt;&lt;/td&gt;&lt;td&gt;&lt;br&gt;&lt;br&gt;&lt;br&gt;&lt;/td&gt;&lt;/tr&gt;&lt;tr&gt;&lt;td&gt;&lt;/td&gt;&lt;td&gt;&lt;br&gt;&lt;br&gt;&lt;/td&gt;&lt;/tr&gt;&lt;/tbody&gt;&lt;/table&gt;&lt;/div&gt;&lt;/div&gt;" style="verticalAlign=top;align=left;overflow=fill;html=1;rounded=0;shadow=0;comic=0;labelBackgroundColor=none;strokeWidth=1;fontFamily=Verdana;fontSize=12" parent="1" vertex="1">
          <mxGeometry x="-441" y="-360" width="380" height="220" as="geometry" />
        </mxCell>
        <mxCell id="ChXvx0Uz5xIYDGQLhh-7-40" value="&lt;div style=&quot;box-sizing:border-box;width:100%;background:#e4e4e4;padding:2px;&quot;&gt;&lt;b&gt;tipoUnidade&lt;/b&gt;&lt;/div&gt;&lt;div style=&quot;box-sizing:border-box;width:100%;background:#e4e4e4;padding:2px;&quot;&gt;&lt;br&gt;&lt;/div&gt;&lt;table style=&quot;width:100%;font-size:1em;&quot; cellpadding=&quot;2&quot; cellspacing=&quot;0&quot;&gt;&lt;tbody&gt;&lt;tr&gt;&lt;td&gt;&lt;span style=&quot;color: rgba(0, 0, 0, 0); font-family: monospace; font-size: 0px;&quot;&gt;%3CmxGraphModel%3E%3Croot%3E%3CmxCell%20id%3D%220%22%2F%3E%3CmxCell%20id%3D%221%22%20parent%3D%220%22%2F%3E%3CmxCell%20id%3D%222%22%20value%3D%22%26lt%3Bdiv%20style%3D%26quot%3Bbox-sizing%3Aborder-box%3Bwidth%3A100%25%3Bbackground%3A%23e4e4e4%3Bpadding%3A2px%3B%26quot%3B%26gt%3BUSF%2B%26lt%3B%2Fdiv%26gt%3B%26lt%3Bdiv%20style%3D%26quot%3Bbox-sizing%3Aborder-box%3Bwidth%3A100%25%3Bbackground%3A%23e4e4e4%3Bpadding%3A2px%3B%26quot%3B%26gt%3B%26lt%3Bbr%26gt%3B%26lt%3B%2Fdiv%26gt%3B%26lt%3Btable%20style%3D%26quot%3Bwidth%3A100%25%3Bfont-size%3A1em%3B%26quot%3B%20cellpadding%3D%26quot%3B2%26quot%3B%20cellspacing%3D%26quot%3B0%26quot%3B%26gt%3B%26lt%3Btbody%26gt%3B%26lt%3Btr%26gt%3B%26lt%3Btd%26gt%3B%26lt%3Bbr%26gt%3B%26lt%3B%2Ftd%26gt%3B%26lt%3Btd%26gt%3BCNES%26lt%3Bbr%26gt%3Bcnes_padrao%26lt%3Bbr%26gt%3Bnome%26lt%3Bbr%26gt%3Bperfil%26lt%3Bbr%26gt%3Bdistrito%26lt%3Bbr%26gt%3Bcomplexidade%26lt%3Bbr%26gt%3Bn_esf%26lt%3Bbr%26gt%3Bturno_esf%26lt%3Bbr%26gt%3Bhorario_esf%26lt%3Bbr%26gt%3Bqtd_medico_esf%26lt%3Bbr%26gt%3Bqtd_enfermeiro_esf%26lt%3Bbr%26gt%3Bqtd_tecnico_esf%26lt%3Bbr%26gt%3Bacs%26lt%3Bbr%26gt%3Bn_esb%26lt%3Bbr%26gt%3Bturno_esb%26lt%3Bbr%26gt%3Bhorario_esb%26lt%3Bbr%26gt%3Bcir_dentista%20(0%20ou%201)%26lt%3Bbr%26gt%3Basb%20(0%20ou%201)%26lt%3Bbr%26gt%3Brecepcionista%20(0%20ou%201)%26lt%3Bbr%26gt%3Bturno_recepcionista%26lt%3Bbr%26gt%3Bhorario_recepcionista%26lt%3Bbr%26gt%3Bregulacao%20(0%20ou%201)%26lt%3Bbr%26gt%3Bturno_prof_regulacao%26lt%3Bbr%26gt%3Bhorario_prof_regulacao%26lt%3Bbr%26gt%3Bfarmacia%20(0%20ou%201)%26lt%3Bbr%26gt%3Bturno_prof_farmacia%26lt%3Bbr%26gt%3Bhorario_prof_farmacia%26lt%3Bbr%26gt%3B%26lt%3Bbr%26gt%3B%26lt%3Bbr%26gt%3B%26lt%3Bbr%26gt%3B%26lt%3Bbr%26gt%3B%26lt%3Bbr%26gt%3B%26lt%3Bbr%26gt%3B%26lt%3B%2Ftd%26gt%3B%26lt%3B%2Ftr%26gt%3B%26lt%3Btr%26gt%3B%26lt%3Btd%26gt%3B%26lt%3B%2Ftd%26gt%3B%26lt%3Btd%26gt%3B%26lt%3Bbr%26gt%3B%26lt%3Bbr%26gt%3B%26lt%3Bbr%26gt%3B%26lt%3B%2Ftd%26gt%3B%26lt%3B%2Ftr%26gt%3B%26lt%3Btr%26gt%3B%26lt%3Btd%26gt%3B%26lt%3B%2Ftd%26gt%3B%26lt%3Btd%26gt%3B%26lt%3Bbr%26gt%3B%26lt%3Bbr%26gt%3B%26lt%3B%2Ftd%26gt%3B%26lt%3B%2Ftr%26gt%3B%26lt%3B%2Ftbody%26gt%3B%26lt%3B%2Ftable%26gt%3B%22%20style%3D%22verticalAlign%3Dtop%3Balign%3Dleft%3Boverflow%3Dfill%3Bhtml%3D1%3Brounded%3D0%3Bshadow%3D0%3Bcomic%3D0%3BlabelBackgroundColor%3Dnone%3BstrokeWidth%3D1%3BfontFamily%3DVerdana%3BfontSize%3D12%22%20vertex%3D%221%22%20parent%3D%221%22%3E%3CmxGeometry%20x%3D%22-350%22%20y%3D%2290%22%20width%3D%22260%22%20height%3D%22450%22%20as%3D%22geometry%22%2F%3E%3C%2FmxCell%3E%3C%2Froot%3E%3C%2FmxGraphModel%3EpkPKp&lt;/span&gt;&lt;span id=&quot;docs-internal-guid-9bf1a6af-7fff-64a5-996d-017bda13f4cf&quot;&gt;&lt;b&gt;PK&lt;/b&gt;&amp;nbsp; &amp;nbsp; &amp;nbsp;tipo_unidade&amp;nbsp;&lt;b&gt;VARCHAR(10)&amp;nbsp;&lt;/b&gt;&lt;br&gt;&lt;/span&gt;&lt;blockquote style=&quot;margin: 0 0 0 40px; border: none; padding: 0px;&quot;&gt;descricao &lt;b&gt;VARCHAR(255)&lt;/b&gt;&lt;/blockquote&gt;&lt;blockquote style=&quot;margin: 0 0 0 40px; border: none; padding: 0px;&quot;&gt;&lt;br&gt;&lt;/blockquote&gt;&lt;span&gt;&lt;br&gt;&lt;/span&gt;&lt;/td&gt;&lt;td&gt;&lt;br&gt;&lt;br&gt;&lt;br&gt;&lt;br&gt;&lt;br&gt;&lt;br&gt;&lt;br&gt;&lt;/td&gt;&lt;/tr&gt;&lt;tr&gt;&lt;td&gt;&lt;/td&gt;&lt;td&gt;&lt;br&gt;&lt;br&gt;&lt;br&gt;&lt;/td&gt;&lt;/tr&gt;&lt;tr&gt;&lt;td&gt;&lt;/td&gt;&lt;td&gt;&lt;br&gt;&lt;br&gt;&lt;/td&gt;&lt;/tr&gt;&lt;/tbody&gt;&lt;/table&gt;" style="verticalAlign=top;align=left;overflow=fill;html=1;rounded=0;shadow=0;comic=0;labelBackgroundColor=none;strokeWidth=1;fontFamily=Verdana;fontSize=12" parent="1" vertex="1">
          <mxGeometry x="-831" y="-360" width="310" height="130" as="geometry" />
        </mxCell>
        <mxCell id="ChXvx0Uz5xIYDGQLhh-7-41" value="" style="endArrow=none;html=1;rounded=0;" parent="1" edge="1">
          <mxGeometry width="50" height="50" relative="1" as="geometry">
            <mxPoint x="-932" y="120" as="sourcePoint" />
            <mxPoint x="-932" y="-440" as="targetPoint" />
          </mxGeometry>
        </mxCell>
        <mxCell id="ChXvx0Uz5xIYDGQLhh-7-42" value="" style="endArrow=none;html=1;rounded=0;" parent="1" edge="1">
          <mxGeometry width="50" height="50" relative="1" as="geometry">
            <mxPoint x="9" y="120" as="sourcePoint" />
            <mxPoint x="9" y="-440" as="targetPoint" />
          </mxGeometry>
        </mxCell>
        <mxCell id="ChXvx0Uz5xIYDGQLhh-7-43" value="" style="endArrow=none;html=1;rounded=0;" parent="1" edge="1">
          <mxGeometry width="50" height="50" relative="1" as="geometry">
            <mxPoint x="10" y="120" as="sourcePoint" />
            <mxPoint x="-931" y="120" as="targetPoint" />
          </mxGeometry>
        </mxCell>
        <mxCell id="ChXvx0Uz5xIYDGQLhh-7-44" value="" style="endArrow=none;html=1;rounded=0;" parent="1" edge="1">
          <mxGeometry width="50" height="50" relative="1" as="geometry">
            <mxPoint x="10" y="-440" as="sourcePoint" />
            <mxPoint x="-931" y="-440" as="targetPoint" />
          </mxGeometry>
        </mxCell>
        <mxCell id="ChXvx0Uz5xIYDGQLhh-7-45" value="" style="endArrow=none;html=1;rounded=0;" parent="1" edge="1">
          <mxGeometry width="50" height="50" relative="1" as="geometry">
            <mxPoint x="10" y="-390" as="sourcePoint" />
            <mxPoint x="-931" y="-390" as="targetPoint" />
          </mxGeometry>
        </mxCell>
        <mxCell id="ChXvx0Uz5xIYDGQLhh-7-46" value="" style="endArrow=none;html=1;rounded=0;entryX=0.045;entryY=1.027;entryDx=0;entryDy=0;entryPerimeter=0;" parent="1" edge="1">
          <mxGeometry width="50" height="50" relative="1" as="geometry">
            <mxPoint x="-960" y="-480" as="sourcePoint" />
            <mxPoint x="-959.9999999999999" y="-1080" as="targetPoint" />
          </mxGeometry>
        </mxCell>
        <mxCell id="ChXvx0Uz5xIYDGQLhh-7-47" value="" style="endArrow=none;html=1;rounded=0;entryX=0.045;entryY=1.027;entryDx=0;entryDy=0;entryPerimeter=0;" parent="1" edge="1">
          <mxGeometry width="50" height="50" relative="1" as="geometry">
            <mxPoint x="40" y="-480" as="sourcePoint" />
            <mxPoint x="40.000000000000114" y="-1080" as="targetPoint" />
          </mxGeometry>
        </mxCell>
        <mxCell id="ChXvx0Uz5xIYDGQLhh-7-48" value="" style="endArrow=none;html=1;rounded=0;entryX=0.045;entryY=1.027;entryDx=0;entryDy=0;entryPerimeter=0;" parent="1" edge="1">
          <mxGeometry width="50" height="50" relative="1" as="geometry">
            <mxPoint x="40" y="-480" as="sourcePoint" />
            <mxPoint x="-959.9999999999999" y="-480" as="targetPoint" />
          </mxGeometry>
        </mxCell>
        <mxCell id="ChXvx0Uz5xIYDGQLhh-7-49" value="" style="endArrow=none;html=1;rounded=0;entryX=0.045;entryY=1.027;entryDx=0;entryDy=0;entryPerimeter=0;" parent="1" edge="1">
          <mxGeometry width="50" height="50" relative="1" as="geometry">
            <mxPoint x="40" y="-1031" as="sourcePoint" />
            <mxPoint x="-959.9999999999999" y="-1031" as="targetPoint" />
          </mxGeometry>
        </mxCell>
        <mxCell id="ChXvx0Uz5xIYDGQLhh-7-50" value="" style="endArrow=none;html=1;rounded=0;entryX=0.045;entryY=1.027;entryDx=0;entryDy=0;entryPerimeter=0;" parent="1" edge="1">
          <mxGeometry width="50" height="50" relative="1" as="geometry">
            <mxPoint x="40" y="-1080" as="sourcePoint" />
            <mxPoint x="-959.9999999999999" y="-1080" as="targetPoint" />
          </mxGeometry>
        </mxCell>
        <mxCell id="ChXvx0Uz5xIYDGQLhh-7-51" value="" style="endArrow=none;html=1;rounded=0;" parent="1" edge="1">
          <mxGeometry width="50" height="50" relative="1" as="geometry">
            <mxPoint x="-80" y="-1130" as="sourcePoint" />
            <mxPoint x="-80" y="-1680" as="targetPoint" />
            <Array as="points">
              <mxPoint x="-80" y="-1660" />
            </Array>
          </mxGeometry>
        </mxCell>
        <mxCell id="ChXvx0Uz5xIYDGQLhh-7-52" value="" style="endArrow=none;html=1;rounded=0;" parent="1" edge="1">
          <mxGeometry width="50" height="50" relative="1" as="geometry">
            <mxPoint x="280" y="-1130" as="sourcePoint" />
            <mxPoint x="280" y="-1680" as="targetPoint" />
            <Array as="points">
              <mxPoint x="280" y="-1660" />
            </Array>
          </mxGeometry>
        </mxCell>
        <mxCell id="ChXvx0Uz5xIYDGQLhh-7-54" value="" style="endArrow=none;html=1;rounded=0;" parent="1" edge="1">
          <mxGeometry width="50" height="50" relative="1" as="geometry">
            <mxPoint x="-80" y="-1130" as="sourcePoint" />
            <mxPoint x="280" y="-1130" as="targetPoint" />
          </mxGeometry>
        </mxCell>
        <mxCell id="ChXvx0Uz5xIYDGQLhh-7-56" value="" style="endArrow=none;html=1;rounded=0;" parent="1" edge="1">
          <mxGeometry width="50" height="50" relative="1" as="geometry">
            <mxPoint x="-80" y="-1680" as="sourcePoint" />
            <mxPoint x="280" y="-1680" as="targetPoint" />
          </mxGeometry>
        </mxCell>
        <mxCell id="ChXvx0Uz5xIYDGQLhh-7-57" value="Modelo final" style="text;strokeColor=none;fillColor=none;html=1;fontSize=24;fontStyle=1;verticalAlign=middle;align=center;" parent="1" vertex="1">
          <mxGeometry x="-360" y="205" width="160" height="40" as="geometry" />
        </mxCell>
        <mxCell id="ChXvx0Uz5xIYDGQLhh-7-58" value="" style="endArrow=none;html=1;rounded=0;" parent="1" edge="1">
          <mxGeometry width="50" height="50" relative="1" as="geometry">
            <mxPoint x="-80" y="-1630" as="sourcePoint" />
            <mxPoint x="280" y="-1630" as="targetPoint" />
          </mxGeometry>
        </mxCell>
        <mxCell id="ChXvx0Uz5xIYDGQLhh-7-61" value="&lt;div style=&quot;box-sizing:border-box;width:100%;background:#e4e4e4;padding:2px;&quot;&gt;&lt;b&gt;unidades&lt;/b&gt;&lt;/div&gt;&lt;div style=&quot;box-sizing:border-box;width:100%;background:#e4e4e4;padding:2px;&quot;&gt;&lt;br&gt;&lt;/div&gt;&lt;table style=&quot;width:100%;font-size:1em;&quot; cellpadding=&quot;2&quot; cellspacing=&quot;0&quot;&gt;&lt;tbody&gt;&lt;tr&gt;&lt;td&gt;&lt;span style=&quot;color: rgba(0, 0, 0, 0); font-family: monospace; font-size: 0px;&quot;&gt;%3CmxGraphModel%3E%3Croot%3E%3CmxCell%20id%3D%220%22%2F%3E%3CmxCell%20id%3D%221%22%20parent%3D%220%22%2F%3E%3CmxCell%20id%3D%222%22%20value%3D%22%26lt%3Bdiv%20style%3D%26quot%3Bbox-sizing%3Aborder-box%3Bwidth%3A100%25%3Bbackground%3A%23e4e4e4%3Bpadding%3A2px%3B%26quot%3B%26gt%3BUSF%2B%26lt%3B%2Fdiv%26gt%3B%26lt%3Bdiv%20style%3D%26quot%3Bbox-sizing%3Aborder-box%3Bwidth%3A100%25%3Bbackground%3A%23e4e4e4%3Bpadding%3A2px%3B%26quot%3B%26gt%3B%26lt%3Bbr%26gt%3B%26lt%3B%2Fdiv%26gt%3B%26lt%3Btable%20style%3D%26quot%3Bwidth%3A100%25%3Bfont-size%3A1em%3B%26quot%3B%20cellpadding%3D%26quot%3B2%26quot%3B%20cellspacing%3D%26quot%3B0%26quot%3B%26gt%3B%26lt%3Btbody%26gt%3B%26lt%3Btr%26gt%3B%26lt%3Btd%26gt%3B%26lt%3Bbr%26gt%3B%26lt%3B%2Ftd%26gt%3B%26lt%3Btd%26gt%3BCNES%26lt%3Bbr%26gt%3Bcnes_padrao%26lt%3Bbr%26gt%3Bnome%26lt%3Bbr%26gt%3Bperfil%26lt%3Bbr%26gt%3Bdistrito%26lt%3Bbr%26gt%3Bcomplexidade%26lt%3Bbr%26gt%3Bn_esf%26lt%3Bbr%26gt%3Bturno_esf%26lt%3Bbr%26gt%3Bhorario_esf%26lt%3Bbr%26gt%3Bqtd_medico_esf%26lt%3Bbr%26gt%3Bqtd_enfermeiro_esf%26lt%3Bbr%26gt%3Bqtd_tecnico_esf%26lt%3Bbr%26gt%3Bacs%26lt%3Bbr%26gt%3Bn_esb%26lt%3Bbr%26gt%3Bturno_esb%26lt%3Bbr%26gt%3Bhorario_esb%26lt%3Bbr%26gt%3Bcir_dentista%20(0%20ou%201)%26lt%3Bbr%26gt%3Basb%20(0%20ou%201)%26lt%3Bbr%26gt%3Brecepcionista%20(0%20ou%201)%26lt%3Bbr%26gt%3Bturno_recepcionista%26lt%3Bbr%26gt%3Bhorario_recepcionista%26lt%3Bbr%26gt%3Bregulacao%20(0%20ou%201)%26lt%3Bbr%26gt%3Bturno_prof_regulacao%26lt%3Bbr%26gt%3Bhorario_prof_regulacao%26lt%3Bbr%26gt%3Bfarmacia%20(0%20ou%201)%26lt%3Bbr%26gt%3Bturno_prof_farmacia%26lt%3Bbr%26gt%3Bhorario_prof_farmacia%26lt%3Bbr%26gt%3B%26lt%3Bbr%26gt%3B%26lt%3Bbr%26gt%3B%26lt%3Bbr%26gt%3B%26lt%3Bbr%26gt%3B%26lt%3Bbr%26gt%3B%26lt%3Bbr%26gt%3B%26lt%3B%2Ftd%26gt%3B%26lt%3B%2Ftr%26gt%3B%26lt%3Btr%26gt%3B%26lt%3Btd%26gt%3B%26lt%3B%2Ftd%26gt%3B%26lt%3Btd%26gt%3B%26lt%3Bbr%26gt%3B%26lt%3Bbr%26gt%3B%26lt%3Bbr%26gt%3B%26lt%3B%2Ftd%26gt%3B%26lt%3B%2Ftr%26gt%3B%26lt%3Btr%26gt%3B%26lt%3Btd%26gt%3B%26lt%3B%2Ftd%26gt%3B%26lt%3Btd%26gt%3B%26lt%3Bbr%26gt%3B%26lt%3Bbr%26gt%3B%26lt%3B%2Ftd%26gt%3B%26lt%3B%2Ftr%26gt%3B%26lt%3B%2Ftbody%26gt%3B%26lt%3B%2Ftable%26gt%3B%22%20style%3D%22verticalAlign%3Dtop%3Balign%3Dleft%3Boverflow%3Dfill%3Bhtml%3D1%3Brounded%3D0%3Bshadow%3D0%3Bcomic%3D0%3BlabelBackgroundColor%3Dnone%3BstrokeWidth%3D1%3BfontFamily%3DVerdana%3BfontSize%3D12%22%20vertex%3D%221%22%20parent%3D%221%22%3E%3CmxGeometry%20x%3D%22-350%22%20y%3D%2290%22%20width%3D%22260%22%20height%3D%22450%22%20as%3D%22geometry%22%2F%3E%3C%2FmxCell%3E%3C%2Froot%3E%3C%2FmxGraphModel%3EpkPKp&lt;/span&gt;&lt;span id=&quot;docs-internal-guid-9bf1a6af-7fff-64a5-996d-017bda13f4cf&quot;&gt;&lt;b&gt;PK&lt;/b&gt;&amp;nbsp; &amp;nbsp; &amp;nbsp;id_unidades ID SERIAL&amp;nbsp;&lt;br&gt;&lt;span style=&quot;white-space: pre;&quot;&gt;&#x9;&lt;/span&gt;&amp;nbsp;cnes_padrao &lt;b&gt;VARCHAR(20)&amp;nbsp;&lt;/b&gt;&lt;br&gt;&lt;/span&gt;&lt;blockquote style=&quot;margin: 0 0 0 40px; border: none; padding: 0px;&quot;&gt;&lt;span&gt;nome &lt;b&gt;VARCHAR(255)&lt;/b&gt;&lt;/span&gt;&lt;span&gt;&lt;b&gt;&lt;br&gt;&lt;/b&gt;&lt;/span&gt;&lt;span&gt;tipo_unidade &lt;b&gt;VARCHAR(100)&lt;br&gt;&lt;/b&gt;&lt;/span&gt;&lt;span&gt;cod_unidade &lt;b&gt;VARCHAR(50)&lt;br&gt;&lt;/b&gt;&lt;/span&gt;&lt;span&gt;x_long &lt;b&gt;DECIMAL(10, 6)&lt;br&gt;&lt;/b&gt;&lt;/span&gt;&lt;span&gt;y_lat &lt;b&gt;DECIMAL(10, 6)&lt;/b&gt;&lt;/span&gt;&lt;/blockquote&gt;&lt;b&gt;&amp;nbsp; &amp;nbsp; &amp;nbsp; &amp;nbsp; &amp;nbsp;&amp;nbsp;&lt;/b&gt;fk_id_tipo_unidade&lt;br&gt;&amp;nbsp; &amp;nbsp; &amp;nbsp; &amp;nbsp; &amp;nbsp;fk_id_horarios&lt;br&gt;&amp;nbsp; &amp;nbsp; &amp;nbsp; &amp;nbsp; &amp;nbsp;fk_id_info_unidades&lt;br&gt;&amp;nbsp; &amp;nbsp; &amp;nbsp; &amp;nbsp; &amp;nbsp;fk_id_distritos&lt;br&gt;&lt;br&gt;&lt;br&gt;&lt;/td&gt;&lt;td&gt;&lt;br&gt;&lt;br&gt;&lt;br&gt;&lt;br&gt;&lt;br&gt;&lt;br&gt;&lt;br&gt;&lt;/td&gt;&lt;/tr&gt;&lt;tr&gt;&lt;td&gt;&lt;/td&gt;&lt;td&gt;&lt;br&gt;&lt;br&gt;&lt;br&gt;&lt;/td&gt;&lt;/tr&gt;&lt;tr&gt;&lt;td&gt;&lt;/td&gt;&lt;td&gt;&lt;br&gt;&lt;br&gt;&lt;/td&gt;&lt;/tr&gt;&lt;/tbody&gt;&lt;/table&gt;" style="verticalAlign=top;align=left;overflow=fill;html=1;rounded=0;shadow=0;comic=0;labelBackgroundColor=none;strokeWidth=1;fontFamily=Verdana;fontSize=12" parent="1" vertex="1">
          <mxGeometry x="-800" y="280" width="310" height="220" as="geometry" />
        </mxCell>
        <mxCell id="ChXvx0Uz5xIYDGQLhh-7-62" value="&lt;div style=&quot;box-sizing:border-box;width:100%;background:#e4e4e4;padding:2px;&quot;&gt;&lt;b&gt;tipoUnidade&lt;/b&gt;&lt;/div&gt;&lt;div style=&quot;box-sizing:border-box;width:100%;background:#e4e4e4;padding:2px;&quot;&gt;&lt;br&gt;&lt;/div&gt;&lt;table style=&quot;width:100%;font-size:1em;&quot; cellpadding=&quot;2&quot; cellspacing=&quot;0&quot;&gt;&lt;tbody&gt;&lt;tr&gt;&lt;td&gt;&lt;span style=&quot;color: rgba(0, 0, 0, 0); font-family: monospace; font-size: 0px;&quot;&gt;%3CmxGraphModel%3E%3Croot%3E%3CmxCell%20id%3D%220%22%2F%3E%3CmxCell%20id%3D%221%22%20parent%3D%220%22%2F%3E%3CmxCell%20id%3D%222%22%20value%3D%22%26lt%3Bdiv%20style%3D%26quot%3Bbox-sizing%3Aborder-box%3Bwidth%3A100%25%3Bbackground%3A%23e4e4e4%3Bpadding%3A2px%3B%26quot%3B%26gt%3BUSF%2B%26lt%3B%2Fdiv%26gt%3B%26lt%3Bdiv%20style%3D%26quot%3Bbox-sizing%3Aborder-box%3Bwidth%3A100%25%3Bbackground%3A%23e4e4e4%3Bpadding%3A2px%3B%26quot%3B%26gt%3B%26lt%3Bbr%26gt%3B%26lt%3B%2Fdiv%26gt%3B%26lt%3Btable%20style%3D%26quot%3Bwidth%3A100%25%3Bfont-size%3A1em%3B%26quot%3B%20cellpadding%3D%26quot%3B2%26quot%3B%20cellspacing%3D%26quot%3B0%26quot%3B%26gt%3B%26lt%3Btbody%26gt%3B%26lt%3Btr%26gt%3B%26lt%3Btd%26gt%3B%26lt%3Bbr%26gt%3B%26lt%3B%2Ftd%26gt%3B%26lt%3Btd%26gt%3BCNES%26lt%3Bbr%26gt%3Bcnes_padrao%26lt%3Bbr%26gt%3Bnome%26lt%3Bbr%26gt%3Bperfil%26lt%3Bbr%26gt%3Bdistrito%26lt%3Bbr%26gt%3Bcomplexidade%26lt%3Bbr%26gt%3Bn_esf%26lt%3Bbr%26gt%3Bturno_esf%26lt%3Bbr%26gt%3Bhorario_esf%26lt%3Bbr%26gt%3Bqtd_medico_esf%26lt%3Bbr%26gt%3Bqtd_enfermeiro_esf%26lt%3Bbr%26gt%3Bqtd_tecnico_esf%26lt%3Bbr%26gt%3Bacs%26lt%3Bbr%26gt%3Bn_esb%26lt%3Bbr%26gt%3Bturno_esb%26lt%3Bbr%26gt%3Bhorario_esb%26lt%3Bbr%26gt%3Bcir_dentista%20(0%20ou%201)%26lt%3Bbr%26gt%3Basb%20(0%20ou%201)%26lt%3Bbr%26gt%3Brecepcionista%20(0%20ou%201)%26lt%3Bbr%26gt%3Bturno_recepcionista%26lt%3Bbr%26gt%3Bhorario_recepcionista%26lt%3Bbr%26gt%3Bregulacao%20(0%20ou%201)%26lt%3Bbr%26gt%3Bturno_prof_regulacao%26lt%3Bbr%26gt%3Bhorario_prof_regulacao%26lt%3Bbr%26gt%3Bfarmacia%20(0%20ou%201)%26lt%3Bbr%26gt%3Bturno_prof_farmacia%26lt%3Bbr%26gt%3Bhorario_prof_farmacia%26lt%3Bbr%26gt%3B%26lt%3Bbr%26gt%3B%26lt%3Bbr%26gt%3B%26lt%3Bbr%26gt%3B%26lt%3Bbr%26gt%3B%26lt%3Bbr%26gt%3B%26lt%3Bbr%26gt%3B%26lt%3B%2Ftd%26gt%3B%26lt%3B%2Ftr%26gt%3B%26lt%3Btr%26gt%3B%26lt%3Btd%26gt%3B%26lt%3B%2Ftd%26gt%3B%26lt%3Btd%26gt%3B%26lt%3Bbr%26gt%3B%26lt%3Bbr%26gt%3B%26lt%3Bbr%26gt%3B%26lt%3B%2Ftd%26gt%3B%26lt%3B%2Ftr%26gt%3B%26lt%3Btr%26gt%3B%26lt%3Btd%26gt%3B%26lt%3B%2Ftd%26gt%3B%26lt%3Btd%26gt%3B%26lt%3Bbr%26gt%3B%26lt%3Bbr%26gt%3B%26lt%3B%2Ftd%26gt%3B%26lt%3B%2Ftr%26gt%3B%26lt%3B%2Ftbody%26gt%3B%26lt%3B%2Ftable%26gt%3B%22%20style%3D%22verticalAlign%3Dtop%3Balign%3Dleft%3Boverflow%3Dfill%3Bhtml%3D1%3Brounded%3D0%3Bshadow%3D0%3Bcomic%3D0%3BlabelBackgroundColor%3Dnone%3BstrokeWidth%3D1%3BfontFamily%3DVerdana%3BfontSize%3D12%22%20vertex%3D%221%22%20parent%3D%221%22%3E%3CmxGeometry%20x%3D%22-350%22%20y%3D%2290%22%20width%3D%22260%22%20height%3D%22450%22%20as%3D%22geometry%22%2F%3E%3C%2FmxCell%3E%3C%2Froot%3E%3C%2FmxGraphModel%3EpkPKp&lt;/span&gt;&lt;span id=&quot;docs-internal-guid-9bf1a6af-7fff-64a5-996d-017bda13f4cf&quot;&gt;&lt;b&gt;PK&lt;/b&gt;&amp;nbsp; &amp;nbsp; &amp;nbsp; id_tipo_unidade &lt;b&gt;SERIAL&lt;/b&gt;&amp;nbsp;&lt;br&gt;&lt;span style=&quot;white-space: pre;&quot;&gt;&#x9;&lt;/span&gt;&amp;nbsp; tipo_unidade&amp;nbsp;&lt;b&gt;VARCHAR(10)&amp;nbsp;&lt;/b&gt;&lt;br&gt;&lt;/span&gt;&lt;blockquote style=&quot;margin: 0 0 0 40px; border: none; padding: 0px;&quot;&gt;descricao &lt;b&gt;VARCHAR(255)&lt;/b&gt;&lt;/blockquote&gt;&lt;blockquote style=&quot;margin: 0 0 0 40px; border: none; padding: 0px;&quot;&gt;fk_id_unidade&lt;/blockquote&gt;&lt;blockquote style=&quot;margin: 0 0 0 40px; border: none; padding: 0px;&quot;&gt;&lt;br&gt;&lt;/blockquote&gt;&lt;span&gt;&lt;br&gt;&lt;/span&gt;&lt;/td&gt;&lt;td&gt;&lt;br&gt;&lt;br&gt;&lt;br&gt;&lt;br&gt;&lt;br&gt;&lt;br&gt;&lt;br&gt;&lt;/td&gt;&lt;/tr&gt;&lt;tr&gt;&lt;td&gt;&lt;/td&gt;&lt;td&gt;&lt;br&gt;&lt;br&gt;&lt;br&gt;&lt;/td&gt;&lt;/tr&gt;&lt;tr&gt;&lt;td&gt;&lt;/td&gt;&lt;td&gt;&lt;br&gt;&lt;br&gt;&lt;/td&gt;&lt;/tr&gt;&lt;/tbody&gt;&lt;/table&gt;" style="verticalAlign=top;align=left;overflow=fill;html=1;rounded=0;shadow=0;comic=0;labelBackgroundColor=none;strokeWidth=1;fontFamily=Verdana;fontSize=12" parent="1" vertex="1">
          <mxGeometry x="-320" y="300" width="310" height="130" as="geometry" />
        </mxCell>
        <mxCell id="ChXvx0Uz5xIYDGQLhh-7-63" value="&lt;div style=&quot;box-sizing:border-box;width:100%;background:#e4e4e4;padding:2px;&quot;&gt;&lt;b&gt;horarios&lt;/b&gt;&lt;/div&gt;&lt;div style=&quot;box-sizing:border-box;width:100%;background:#e4e4e4;padding:2px;&quot;&gt;&lt;br&gt;&lt;/div&gt;&lt;b&gt;PK&lt;/b&gt;&amp;nbsp; &amp;nbsp; &amp;nbsp; id_horarios SERIAL PRIMARY KEY&lt;div&gt;&lt;div&gt;&lt;blockquote style=&quot;margin: 0 0 0 40px; border: none; padding: 0px;&quot;&gt;&lt;div&gt;&lt;div&gt;turno&amp;nbsp; VARCHAR(50)&amp;nbsp;&lt;/div&gt;&lt;/div&gt;&lt;div&gt;horario&lt;/div&gt;&lt;div&gt;&lt;div&gt;horario_inicio TIME&lt;/div&gt;&lt;/div&gt;&lt;div&gt;horario_fim TIME&lt;/div&gt;&lt;div&gt;fk_id_unidade&lt;br&gt;&lt;/div&gt;&lt;div&gt;&lt;br&gt;&lt;/div&gt;&lt;/blockquote&gt;&lt;div&gt;&lt;div&gt;&lt;span style=&quot;background-color: initial;&quot;&gt;&lt;br&gt;&lt;/span&gt;&lt;/div&gt;&lt;div&gt;&lt;br&gt;&lt;/div&gt;&lt;div&gt;&lt;br&gt;&lt;/div&gt;&lt;div&gt;&lt;br&gt;&lt;/div&gt;&lt;div&gt;&lt;br&gt;&lt;/div&gt;&lt;div&gt;&lt;br&gt;&lt;/div&gt;&lt;div&gt;&lt;br&gt;&lt;/div&gt;&lt;div&gt;&lt;br&gt;&lt;table style=&quot;width:100%;font-size:1em;&quot; cellpadding=&quot;2&quot; cellspacing=&quot;0&quot;&gt;&lt;tbody&gt;&lt;tr&gt;&lt;td&gt;&lt;span id=&quot;docs-internal-guid-9bf1a6af-7fff-64a5-996d-017bda13f4cf&quot;&gt;&lt;br&gt;&lt;br&gt;&lt;/span&gt;&lt;/td&gt;&lt;td&gt;&lt;br&gt;&lt;br&gt;&lt;br&gt;&lt;br&gt;&lt;br&gt;&lt;br&gt;&lt;br&gt;&lt;/td&gt;&lt;/tr&gt;&lt;tr&gt;&lt;td&gt;&lt;/td&gt;&lt;td&gt;&lt;br&gt;&lt;br&gt;&lt;br&gt;&lt;/td&gt;&lt;/tr&gt;&lt;tr&gt;&lt;td&gt;&lt;/td&gt;&lt;td&gt;&lt;br&gt;&lt;br&gt;&lt;/td&gt;&lt;/tr&gt;&lt;/tbody&gt;&lt;/table&gt;&lt;/div&gt;&lt;/div&gt;&lt;/div&gt;&lt;/div&gt;" style="verticalAlign=top;align=left;overflow=fill;html=1;rounded=0;shadow=0;comic=0;labelBackgroundColor=none;strokeWidth=1;fontFamily=Verdana;fontSize=12" parent="1" vertex="1">
          <mxGeometry x="-790" y="570" width="420" height="220" as="geometry" />
        </mxCell>
        <mxCell id="ChXvx0Uz5xIYDGQLhh-7-64" value="&lt;div style=&quot;box-sizing:border-box;width:100%;background:#e4e4e4;padding:2px;&quot;&gt;&lt;b&gt;info_unidades&lt;/b&gt;&lt;/div&gt;&lt;div style=&quot;box-sizing:border-box;width:100%;background:#e4e4e4;padding:2px;&quot;&gt;&lt;br&gt;&lt;/div&gt;&lt;b&gt;PK&amp;nbsp; &amp;nbsp; &amp;nbsp;&lt;/b&gt;id_info_unidades&lt;b&gt; SERIAL&lt;/b&gt;&lt;div&gt;&lt;span style=&quot;white-space: pre;&quot;&gt;&#x9;&lt;/span&gt;&amp;nbsp; cnes_padrao &lt;b&gt;VARCHAR(20)&lt;/b&gt;&lt;blockquote style=&quot;margin: 0 0 0 40px; border: none; padding: 0px;&quot;&gt;&lt;div&gt;qtd_recepcionista&lt;b&gt; INT&lt;/b&gt;&lt;/div&gt;&lt;div&gt;qtd_farmacia &lt;b&gt;INT&lt;/b&gt;&lt;/div&gt;&lt;div&gt;regulacao &lt;b&gt;BOOLEAN&lt;/b&gt;&lt;/div&gt;&lt;div&gt;acs &lt;b&gt;BOOLEAN&lt;/b&gt;&lt;/div&gt;&lt;div&gt;n_esb&lt;b&gt; INT&lt;/b&gt;&lt;/div&gt;&lt;div&gt;cir_dentista &lt;b&gt;BOOLEAN&lt;/b&gt;&lt;/div&gt;&lt;div&gt;asb &lt;b&gt;BOOLEAN&lt;/b&gt;&lt;/div&gt;&lt;div&gt;recepcionista &lt;b&gt;BOOLEAN&lt;/b&gt;&lt;/div&gt;&lt;/blockquote&gt;&lt;div&gt;&lt;b&gt;&amp;nbsp; &amp;nbsp; &amp;nbsp; &amp;nbsp; &amp;nbsp;&amp;nbsp;&lt;/b&gt;fk_id_unidades&lt;br&gt;&lt;div&gt;&lt;span style=&quot;background-color: initial;&quot;&gt;&lt;br&gt;&lt;/span&gt;&lt;/div&gt;&lt;div&gt;&lt;br&gt;&lt;/div&gt;&lt;div&gt;&lt;br&gt;&lt;/div&gt;&lt;div&gt;&lt;br&gt;&lt;/div&gt;&lt;div&gt;&lt;br&gt;&lt;/div&gt;&lt;div&gt;&lt;br&gt;&lt;/div&gt;&lt;div&gt;&lt;br&gt;&lt;/div&gt;&lt;div&gt;&lt;br&gt;&lt;table style=&quot;width:100%;font-size:1em;&quot; cellpadding=&quot;2&quot; cellspacing=&quot;0&quot;&gt;&lt;tbody&gt;&lt;tr&gt;&lt;td&gt;&lt;span id=&quot;docs-internal-guid-9bf1a6af-7fff-64a5-996d-017bda13f4cf&quot;&gt;&lt;br&gt;&lt;br&gt;&lt;/span&gt;&lt;/td&gt;&lt;td&gt;&lt;br&gt;&lt;br&gt;&lt;br&gt;&lt;br&gt;&lt;br&gt;&lt;br&gt;&lt;br&gt;&lt;/td&gt;&lt;/tr&gt;&lt;tr&gt;&lt;td&gt;&lt;/td&gt;&lt;td&gt;&lt;br&gt;&lt;br&gt;&lt;br&gt;&lt;/td&gt;&lt;/tr&gt;&lt;tr&gt;&lt;td&gt;&lt;/td&gt;&lt;td&gt;&lt;br&gt;&lt;br&gt;&lt;/td&gt;&lt;/tr&gt;&lt;/tbody&gt;&lt;/table&gt;&lt;/div&gt;&lt;/div&gt;&lt;/div&gt;" style="verticalAlign=top;align=left;overflow=fill;html=1;rounded=0;shadow=0;comic=0;labelBackgroundColor=none;strokeWidth=1;fontFamily=Verdana;fontSize=12" parent="1" vertex="1">
          <mxGeometry x="-221" y="530" width="380" height="220" as="geometry" />
        </mxCell>
        <mxCell id="ChXvx0Uz5xIYDGQLhh-7-65" value="" style="endArrow=none;html=1;rounded=0;" parent="1" edge="1">
          <mxGeometry width="50" height="50" relative="1" as="geometry">
            <mxPoint x="-840" y="821" as="sourcePoint" />
            <mxPoint x="360" y="200" as="targetPoint" />
            <Array as="points">
              <mxPoint x="-840" y="200" />
            </Array>
          </mxGeometry>
        </mxCell>
        <mxCell id="ChXvx0Uz5xIYDGQLhh-7-66" value="" style="endArrow=none;html=1;rounded=0;" parent="1" edge="1">
          <mxGeometry width="50" height="50" relative="1" as="geometry">
            <mxPoint x="360" y="820" as="sourcePoint" />
            <mxPoint x="360" y="200" as="targetPoint" />
          </mxGeometry>
        </mxCell>
        <mxCell id="ChXvx0Uz5xIYDGQLhh-7-67" value="" style="endArrow=none;html=1;rounded=0;" parent="1" edge="1">
          <mxGeometry width="50" height="50" relative="1" as="geometry">
            <mxPoint x="-840" y="821" as="sourcePoint" />
            <mxPoint x="360" y="821" as="targetPoint" />
          </mxGeometry>
        </mxCell>
        <mxCell id="ChXvx0Uz5xIYDGQLhh-7-68" value="" style="endArrow=none;html=1;rounded=0;" parent="1" edge="1">
          <mxGeometry width="50" height="50" relative="1" as="geometry">
            <mxPoint x="-840" y="240" as="sourcePoint" />
            <mxPoint x="360" y="240" as="targetPoint" />
          </mxGeometry>
        </mxCell>
        <mxCell id="ChXvx0Uz5xIYDGQLhh-7-69" value="" style="endArrow=none;html=1;rounded=0;exitX=-0.01;exitY=0.446;exitDx=0;exitDy=0;exitPerimeter=0;" parent="1" source="ChXvx0Uz5xIYDGQLhh-7-62" edge="1">
          <mxGeometry width="50" height="50" relative="1" as="geometry">
            <mxPoint x="-420" y="410" as="sourcePoint" />
            <mxPoint x="-440" y="358" as="targetPoint" />
          </mxGeometry>
        </mxCell>
        <mxCell id="ChXvx0Uz5xIYDGQLhh-7-70" value="" style="endArrow=none;html=1;rounded=0;" parent="1" edge="1">
          <mxGeometry width="50" height="50" relative="1" as="geometry">
            <mxPoint x="-440" y="420" as="sourcePoint" />
            <mxPoint x="-440" y="360" as="targetPoint" />
          </mxGeometry>
        </mxCell>
        <mxCell id="ChXvx0Uz5xIYDGQLhh-7-71" value="" style="endArrow=none;html=1;rounded=0;" parent="1" edge="1">
          <mxGeometry width="50" height="50" relative="1" as="geometry">
            <mxPoint x="-490" y="420" as="sourcePoint" />
            <mxPoint x="-440" y="420" as="targetPoint" />
          </mxGeometry>
        </mxCell>
        <mxCell id="ChXvx0Uz5xIYDGQLhh-7-72" value="" style="endArrow=none;html=1;rounded=0;" parent="1" edge="1">
          <mxGeometry width="50" height="50" relative="1" as="geometry">
            <mxPoint x="-820" y="610" as="sourcePoint" />
            <mxPoint x="-820" y="440" as="targetPoint" />
          </mxGeometry>
        </mxCell>
        <mxCell id="ChXvx0Uz5xIYDGQLhh-7-73" value="" style="endArrow=none;html=1;rounded=0;" parent="1" edge="1">
          <mxGeometry width="50" height="50" relative="1" as="geometry">
            <mxPoint x="-800" y="440" as="sourcePoint" />
            <mxPoint x="-820" y="440" as="targetPoint" />
          </mxGeometry>
        </mxCell>
        <mxCell id="ChXvx0Uz5xIYDGQLhh-7-74" value="" style="endArrow=none;html=1;rounded=0;exitX=0.007;exitY=0.182;exitDx=0;exitDy=0;exitPerimeter=0;" parent="1" source="ChXvx0Uz5xIYDGQLhh-7-63" edge="1">
          <mxGeometry width="50" height="50" relative="1" as="geometry">
            <mxPoint x="-800" y="610" as="sourcePoint" />
            <mxPoint x="-820" y="610" as="targetPoint" />
            <Array as="points" />
          </mxGeometry>
        </mxCell>
        <mxCell id="ChXvx0Uz5xIYDGQLhh-7-75" value="" style="endArrow=none;html=1;rounded=0;" parent="1" edge="1">
          <mxGeometry width="50" height="50" relative="1" as="geometry">
            <mxPoint x="-310" y="570" as="sourcePoint" />
            <mxPoint x="-221" y="570" as="targetPoint" />
          </mxGeometry>
        </mxCell>
        <mxCell id="ChXvx0Uz5xIYDGQLhh-7-77" value="" style="endArrow=none;html=1;rounded=0;" parent="1" edge="1">
          <mxGeometry width="50" height="50" relative="1" as="geometry">
            <mxPoint x="-310" y="460" as="sourcePoint" />
            <mxPoint x="-310" y="570" as="targetPoint" />
          </mxGeometry>
        </mxCell>
        <mxCell id="ChXvx0Uz5xIYDGQLhh-7-78" value="" style="endArrow=none;html=1;rounded=0;" parent="1" edge="1">
          <mxGeometry width="50" height="50" relative="1" as="geometry">
            <mxPoint x="-490" y="460" as="sourcePoint" />
            <mxPoint x="-310" y="460" as="targetPoint" />
          </mxGeometry>
        </mxCell>
        <mxCell id="sDz687DnCftrpNJ0tMUX-1" value="&lt;div style=&quot;box-sizing:border-box;width:100%;background:#e4e4e4;padding:2px;&quot;&gt;&lt;b&gt;tab_ds&lt;/b&gt;&lt;/div&gt;&lt;table style=&quot;width:100%;font-size:1em;&quot; cellpadding=&quot;2&quot; cellspacing=&quot;0&quot;&gt;&lt;tbody&gt;&lt;tr&gt;&lt;td&gt;&lt;br&gt;&lt;/td&gt;&lt;td&gt;distrito_sanitario&lt;br&gt;ds&lt;/td&gt;&lt;/tr&gt;&lt;tr&gt;&lt;td&gt;&lt;/td&gt;&lt;td&gt;&lt;br&gt;&lt;br&gt;&lt;br&gt;&lt;/td&gt;&lt;/tr&gt;&lt;tr&gt;&lt;td&gt;&lt;/td&gt;&lt;td&gt;&lt;br&gt;&lt;br&gt;&lt;/td&gt;&lt;/tr&gt;&lt;/tbody&gt;&lt;/table&gt;" style="verticalAlign=top;align=left;overflow=fill;html=1;rounded=0;shadow=0;comic=0;labelBackgroundColor=none;strokeWidth=1;fontFamily=Verdana;fontSize=12" parent="1" vertex="1">
          <mxGeometry x="-330" y="-1410" width="180" height="60" as="geometry" />
        </mxCell>
        <mxCell id="sDz687DnCftrpNJ0tMUX-2" value="&lt;div style=&quot;box-sizing:border-box;width:100%;background:#e4e4e4;padding:2px;&quot;&gt;&lt;b&gt;tab_ds&lt;/b&gt;&lt;/div&gt;&lt;table style=&quot;width:100%;font-size:1em;&quot; cellpadding=&quot;2&quot; cellspacing=&quot;0&quot;&gt;&lt;tbody&gt;&lt;tr&gt;&lt;td&gt;&lt;br&gt;&lt;/td&gt;&lt;td&gt;distrito_sanitario&lt;br&gt;ds&lt;/td&gt;&lt;/tr&gt;&lt;tr&gt;&lt;td&gt;&lt;/td&gt;&lt;td&gt;&lt;br&gt;&lt;br&gt;&lt;br&gt;&lt;/td&gt;&lt;/tr&gt;&lt;tr&gt;&lt;td&gt;&lt;/td&gt;&lt;td&gt;&lt;br&gt;&lt;br&gt;&lt;/td&gt;&lt;/tr&gt;&lt;/tbody&gt;&lt;/table&gt;" style="verticalAlign=top;align=left;overflow=fill;html=1;rounded=0;shadow=0;comic=0;labelBackgroundColor=none;strokeWidth=1;fontFamily=Verdana;fontSize=12" parent="1" vertex="1">
          <mxGeometry x="-280" y="-720" width="180" height="60" as="geometry" />
        </mxCell>
        <mxCell id="sDz687DnCftrpNJ0tMUX-3" value="&lt;div style=&quot;box-sizing:border-box;width:100%;background:#e4e4e4;padding:2px;&quot;&gt;&lt;b&gt;tab_ds&lt;/b&gt;&lt;/div&gt;&lt;table style=&quot;width:100%;font-size:1em;&quot; cellpadding=&quot;2&quot; cellspacing=&quot;0&quot;&gt;&lt;tbody&gt;&lt;tr&gt;&lt;td&gt;&lt;br&gt;&lt;/td&gt;&lt;td&gt;distrito_sanitario&lt;br&gt;ds&lt;/td&gt;&lt;/tr&gt;&lt;tr&gt;&lt;td&gt;&lt;/td&gt;&lt;td&gt;&lt;br&gt;&lt;br&gt;&lt;br&gt;&lt;/td&gt;&lt;/tr&gt;&lt;tr&gt;&lt;td&gt;&lt;/td&gt;&lt;td&gt;&lt;br&gt;&lt;br&gt;&lt;/td&gt;&lt;/tr&gt;&lt;/tbody&gt;&lt;/table&gt;" style="verticalAlign=top;align=left;overflow=fill;html=1;rounded=0;shadow=0;comic=0;labelBackgroundColor=none;strokeWidth=1;fontFamily=Verdana;fontSize=12" parent="1" vertex="1">
          <mxGeometry x="-766" y="30" width="180" height="60" as="geometry" />
        </mxCell>
        <mxCell id="sDz687DnCftrpNJ0tMUX-4" value="&lt;div style=&quot;box-sizing:border-box;width:100%;background:#e4e4e4;padding:2px;&quot;&gt;&lt;b&gt;distritos&lt;/b&gt;&lt;/div&gt;&lt;table style=&quot;width:100%;font-size:1em;&quot; cellpadding=&quot;2&quot; cellspacing=&quot;0&quot;&gt;&lt;tbody&gt;&lt;tr&gt;&lt;td&gt;&lt;br&gt;&lt;/td&gt;&lt;td&gt;&lt;b&gt;PK&amp;nbsp; &amp;nbsp; &amp;nbsp;&lt;/b&gt;id_distrito&lt;br&gt;&lt;blockquote style=&quot;margin: 0 0 0 40px; border: none; padding: 0px;&quot;&gt;nome_distrito&lt;br&gt;sigla_distrito&lt;/blockquote&gt;&lt;blockquote style=&quot;margin: 0 0 0 40px; border: none; padding: 0px;&quot;&gt;fk_id_unidades&lt;/blockquote&gt;&lt;br&gt;&lt;/td&gt;&lt;/tr&gt;&lt;tr&gt;&lt;td&gt;&lt;/td&gt;&lt;td&gt;&lt;br&gt;&lt;br&gt;&lt;br&gt;&lt;/td&gt;&lt;/tr&gt;&lt;tr&gt;&lt;td&gt;&lt;/td&gt;&lt;td&gt;&lt;br&gt;&lt;br&gt;&lt;/td&gt;&lt;/tr&gt;&lt;/tbody&gt;&lt;/table&gt;" style="verticalAlign=top;align=left;overflow=fill;html=1;rounded=0;shadow=0;comic=0;labelBackgroundColor=none;strokeWidth=1;fontFamily=Verdana;fontSize=12" parent="1" vertex="1">
          <mxGeometry x="100" y="280" width="180" height="80" as="geometry" />
        </mxCell>
        <mxCell id="sDz687DnCftrpNJ0tMUX-5" value="" style="endArrow=none;html=1;rounded=0;" parent="1" edge="1">
          <mxGeometry width="50" height="50" relative="1" as="geometry">
            <mxPoint x="50" y="300" as="sourcePoint" />
            <mxPoint x="50" y="270" as="targetPoint" />
          </mxGeometry>
        </mxCell>
        <mxCell id="sDz687DnCftrpNJ0tMUX-6" value="" style="endArrow=none;html=1;rounded=0;" parent="1" edge="1">
          <mxGeometry width="50" height="50" relative="1" as="geometry">
            <mxPoint x="-460" y="270" as="sourcePoint" />
            <mxPoint x="50" y="270" as="targetPoint" />
          </mxGeometry>
        </mxCell>
        <mxCell id="sDz687DnCftrpNJ0tMUX-7" value="" style="endArrow=none;html=1;rounded=0;" parent="1" edge="1">
          <mxGeometry width="50" height="50" relative="1" as="geometry">
            <mxPoint x="50" y="300" as="sourcePoint" />
            <mxPoint x="100" y="300" as="targetPoint" />
          </mxGeometry>
        </mxCell>
        <mxCell id="sDz687DnCftrpNJ0tMUX-8" value="" style="endArrow=none;html=1;rounded=0;" parent="1" edge="1">
          <mxGeometry width="50" height="50" relative="1" as="geometry">
            <mxPoint x="-460" y="470" as="sourcePoint" />
            <mxPoint x="-460" y="270" as="targetPoint" />
          </mxGeometry>
        </mxCell>
        <mxCell id="sDz687DnCftrpNJ0tMUX-9" value="" style="endArrow=none;html=1;rounded=0;" parent="1" edge="1">
          <mxGeometry width="50" height="50" relative="1" as="geometry">
            <mxPoint x="-490" y="470" as="sourcePoint" />
            <mxPoint x="-460" y="470" as="targetPoint" />
          </mxGeometry>
        </mxCell>
      </root>
    </mxGraphModel>
  </diagram>
</mxfile>
